<svg t="1737075628303" class="icon" viewBox="0 0 1024 1024" version="1.1" xmlns="http://www.w3.org/2000/svg" p-id="10200" width="48" height="48"><path d="M335.36 395.776c0 91.648 69.632 167.424 157.184 179.712v206.336c0 16.384 14.336 30.72 30.72 30.72s30.72-14.336 30.72-30.72v-91.648h71.68c16.384 0 30.72-14.336 30.72-30.72s-14.336-30.72-30.72-30.72h-71.68V573.44c81.92-16.384 144.896-89.6 144.896-177.664 0-99.84-81.92-181.76-181.76-181.76S335.36 295.424 335.36 395.776zM517.12 274.944c67.584 0 120.32 53.248 120.32 120.32 0 67.584-53.248 120.32-120.32 120.32S396.288 462.848 396.288 395.776 449.536 274.944 517.12 274.944z" p-id="10201"></path><path d="M900.608 152.576L522.752 30.208c-6.144-2.048-12.288-2.048-18.432 0L126.976 152.576c-12.288 4.096-20.48 16.384-20.48 28.672v477.696c2.048 16.384 24.576 159.232 396.288 332.8 4.096 2.048 8.192 2.048 12.288 2.048 4.096 0 8.192 0 12.288-2.048 369.664-173.568 394.24-316.416 396.288-332.8V181.248c-2.56-12.288-10.752-24.576-23.04-28.672z m-40.96 502.272c-2.048 10.24-36.864 126.464-347.136 275.456-312.32-148.992-345.088-265.216-347.136-275.456V203.776l347.136-114.176 347.136 114.176v451.072z" p-id="10202"></path></svg>