<svg t="1737074876174" class="icon" viewBox="0 0 1026 1024" version="1.1" xmlns="http://www.w3.org/2000/svg" p-id="8851" width="48" height="48"><path d="M392.92 608.306a224.526 224.526 0 1 1 224.527-224.527 224.526 224.526 0 0 1-224.526 224.527z m0-384.902a160.376 160.376 0 1 0 160.377 160.375A160.376 160.376 0 0 0 392.92 223.404z" p-id="8852"></path><path d="M713.673 864.907h-64.15a256.601 256.601 0 0 0-513.204 0H72.17a320.752 320.752 0 0 1 641.504 0zM665.56 576.231v-64.15a144.338 144.338 0 1 0-38.01-283.706l-16.839-61.905a208.489 208.489 0 1 1 54.849 409.76z" p-id="8853"></path><path d="M954.236 800.757h-64.15A224.526 224.526 0 0 0 665.56 576.23v-64.15a288.677 288.677 0 0 1 288.676 288.676z" p-id="8854"></path></svg>