<?xml version="1.0" standalone="no"?><!DOCTYPE svg PUBLIC "-//W3C//DTD SVG 1.1//EN" "http://www.w3.org/Graphics/SVG/1.1/DTD/svg11.dtd"><svg height="1024" node-id="1" sillyvg="true" template-height="1024" template-width="1024" version="1.1" viewBox="0 0 1024 1024" width="1024" xmlns="http://www.w3.org/2000/svg" xmlns:xlink="http://www.w3.org/1999/xlink"><defs node-id="27"></defs><g node-id="68"><g node-id="69"><path d="M 0.00 0.00 L 1024.00 0.00 L 1024.00 1024.00 L 0.00 1024.00 Z" fill="none" group-id="1,2" node-id="32" stroke="none" target-height="1024" target-width="1024" target-x="0" target-y="0"></path><path d="M 932.00 896.10 C 941.24 899.47 951.60 896.95 958.27 889.72 C 964.93 882.48 966.60 871.95 962.48 863.02 C 958.37 854.08 949.29 848.49 939.46 848.85 C 938.84 848.85 938.19 848.85 937.46 848.93 C 936.43 849.01 935.45 848.44 935.02 847.50 C 933.99 845.29 932.64 843.23 931.02 841.41 L 930.02 841.47 C 928.99 841.55 928.02 840.98 927.58 840.04 C 927.01 838.85 926.34 837.72 925.58 836.64 C 918.78 831.82 909.58 828.95 899.69 828.95 C 879.12 828.95 862.38 841.22 862.38 856.31 C 862.38 856.97 862.12 857.60 861.65 858.07 C 861.18 858.53 860.55 858.79 859.89 858.79 C 844.81 858.79 832.53 868.84 832.53 881.18 C 832.54 884.75 833.57 888.25 835.48 891.27 C 840.56 894.48 846.47 896.16 852.48 896.10 Z" fill="#80adff" fill-rule="nonzero" group-id="1,2" node-id="34" stroke="none" target-height="70.51898" target-width="134.06702" target-x="832.53" target-y="828.95"></path><path d="M 922.00 898.59 L 932.00 898.59 C 948.27 898.29 961.30 885.02 961.30 868.75 C 961.30 852.47 948.27 839.20 932.00 838.90 C 931.25 838.90 930.50 838.90 929.77 838.99 C 924.34 827.35 909.58 818.99 892.20 818.99 C 870.20 818.99 852.41 832.35 852.41 848.84 C 835.93 848.84 822.57 859.97 822.57 873.71 C 822.57 887.45 835.93 898.58 852.41 898.58 L 902.15 898.58" fill="none" group-id="1,2" node-id="36" stroke="#101129" stroke-linecap="round" stroke-width="8" target-height="79.60004" target-width="138.73364" target-x="822.57" target-y="818.99"></path><path d="M 278.86 220.57 C 292.79 220.57 305.59 212.90 312.14 200.60 C 318.69 188.31 317.93 173.40 310.16 161.84 C 303.96 157.65 296.64 155.42 289.16 155.43 C 288.31 155.43 287.42 155.43 286.34 155.55 C 284.91 155.65 283.57 154.85 282.98 153.55 C 281.54 150.49 279.66 147.66 277.40 145.15 C 276.98 145.15 276.54 145.15 276.05 145.23 C 274.62 145.33 273.28 144.53 272.69 143.23 C 271.92 141.62 271.02 140.07 270.00 138.60 C 260.60 132.00 247.91 128.00 234.29 128.00 C 205.93 128.00 182.86 144.92 182.86 165.71 C 182.86 167.60 181.32 169.14 179.43 169.14 C 158.63 169.14 141.71 182.99 141.71 200.00 C 141.74 204.93 143.15 209.75 145.78 213.91 C 152.76 218.33 160.88 220.64 169.14 220.57 Z" fill="#80adff" fill-rule="nonzero" group-id="1,2" node-id="38" stroke="none" target-height="92.641205" target-width="176.98262" target-x="141.71" target-y="128"></path><path d="M 265.14 224.00 L 278.86 224.00 C 301.33 223.65 319.37 205.33 319.37 182.85 C 319.37 160.38 301.33 142.06 278.86 141.71 C 277.86 141.71 276.80 141.77 275.78 141.84 C 268.30 125.84 247.95 114.29 224.00 114.29 C 193.70 114.29 169.14 132.71 169.14 155.43 C 146.42 155.43 128.00 170.78 128.00 189.71 C 128.00 208.64 146.42 224.00 169.14 224.00 L 237.71 224.00" fill="none" group-id="1,2" node-id="40" stroke="#101129" stroke-linecap="round" stroke-width="8" target-height="109.71" target-width="191.36853" target-x="128" target-y="114.29"></path><path d="M 402.85 817.00 L 408.00 837.76 C 408.57 840.08 410.39 841.90 412.71 842.47 L 433.46 847.58 C 434.18 847.75 434.69 848.40 434.69 849.14 C 434.69 849.89 434.18 850.54 433.46 850.71 L 412.71 855.83 C 410.39 856.40 408.57 858.22 408.00 860.54 L 402.88 881.28 C 402.71 882.01 402.07 882.52 401.32 882.52 C 400.57 882.52 399.93 882.01 399.76 881.28 L 394.64 860.54 C 394.07 858.22 392.25 856.40 389.93 855.83 L 369.18 850.71 C 368.46 850.54 367.95 849.89 367.95 849.14 C 367.95 848.40 368.46 847.75 369.18 847.58 L 389.93 842.47 C 392.25 841.90 394.07 840.08 394.64 837.76 L 399.73 817.00 C 399.91 816.29 400.55 815.79 401.29 815.79 C 402.03 815.79 402.67 816.29 402.85 817.00 Z" fill="#ccdeff" fill-rule="nonzero" group-id="1,2" node-id="42" stroke="none" target-height="66.73633" target-width="66.74402" target-x="367.948" target-y="815.78815"></path><path d="M 867.20 190.66 L 872.32 211.41 C 872.89 213.73 874.71 215.55 877.03 216.12 L 897.77 221.24 C 898.49 221.41 899.00 222.06 899.00 222.81 C 899.00 223.55 898.49 224.20 897.77 224.37 L 877.00 229.48 C 874.68 230.05 872.86 231.87 872.29 234.19 L 867.17 254.94 C 867.00 255.66 866.35 256.17 865.61 256.17 C 864.86 256.17 864.21 255.66 864.04 254.94 L 859.00 234.19 C 858.43 231.87 856.61 230.05 854.29 229.48 L 833.54 224.37 C 832.82 224.20 832.31 223.55 832.31 222.81 C 832.31 222.06 832.82 221.41 833.54 221.24 L 854.29 216.12 C 856.61 215.55 858.43 213.73 859.00 211.41 L 864.11 190.66 C 864.31 189.97 864.94 189.50 865.65 189.50 C 866.37 189.50 867.00 189.97 867.20 190.66 Z" fill="#ccdeff" fill-rule="nonzero" group-id="1,2" node-id="44" stroke="none" target-height="66.66914" target-width="66.69403" target-x="832.308" target-y="189.50285"></path><path d="M 619.47 129.41 L 625.34 153.20 C 625.99 155.87 628.08 157.96 630.75 158.61 L 654.55 164.48 C 655.37 164.69 655.95 165.43 655.95 166.28 C 655.95 167.12 655.37 167.86 654.55 168.07 L 630.75 173.94 C 628.08 174.59 625.99 176.68 625.34 179.35 L 619.47 203.14 C 619.26 203.96 618.52 204.54 617.67 204.54 C 616.83 204.54 616.09 203.96 615.88 203.14 L 610.00 179.35 C 609.35 176.68 607.26 174.59 604.59 173.94 L 580.79 168.07 C 579.97 167.86 579.39 167.12 579.39 166.28 C 579.39 165.43 579.97 164.69 580.79 164.48 L 604.59 158.61 C 607.26 157.96 609.35 155.87 610.00 153.20 L 615.86 129.41 C 616.05 128.57 616.80 127.97 617.66 127.97 C 618.53 127.97 619.28 128.57 619.47 129.41 Z" fill="#ccdeff" fill-rule="nonzero" group-id="1,2" node-id="46" stroke="none" target-height="76.5767" target-width="76.564514" target-x="579.38776" target-y="127.96555"></path><path d="M 215.00 700.44 C 212.79 700.44 211.00 698.65 211.00 696.44 L 211.00 655.88 C 211.00 653.67 209.21 651.88 207.00 651.88 L 71.82 651.88 C 69.61 651.88 67.82 650.09 67.82 647.88 L 67.82 604.60 L 172.00 358.88 C 172.63 357.40 174.07 356.44 175.68 356.44 L 212.00 356.44 C 213.34 356.44 214.59 357.11 215.33 358.22 C 216.07 359.34 216.20 360.75 215.69 361.98 L 116.25 599.32 C 115.74 600.55 115.87 601.96 116.61 603.08 C 117.35 604.19 118.60 604.86 119.94 604.86 L 207.00 604.86 C 209.21 604.86 211.00 603.07 211.00 600.86 L 211.00 504.00 C 211.00 501.79 212.79 500.00 215.00 500.00 L 247.69 500.00 C 249.90 500.00 251.69 501.79 251.69 504.00 L 251.69 600.83 C 251.69 603.04 253.48 604.83 255.69 604.83 L 263.81 604.83 C 266.02 604.83 267.81 606.62 267.81 608.83 L 267.81 647.83 C 267.81 650.04 266.02 651.83 263.81 651.83 L 255.69 651.83 C 253.48 651.83 251.69 653.62 251.69 655.83 L 251.69 696.39 C 251.69 698.60 249.90 700.39 247.69 700.39 Z" fill="#ffffff" fill-rule="nonzero" group-id="1,2" node-id="48" stroke="none" target-height="344" target-width="199.98999" target-x="67.82" target-y="356.44"></path><path d="M 212.00 360.44 L 212.00 360.44 M 212.00 360.44 L 112.56 597.77 C 111.53 600.24 111.80 603.06 113.28 605.29 C 114.76 607.52 117.26 608.86 119.94 608.86 L 207.00 608.86 C 211.42 608.86 215.00 605.28 215.00 600.86 L 215.00 504.00 L 247.69 504.00 L 247.69 600.83 C 247.69 605.25 251.27 608.83 255.69 608.83 L 263.81 608.83 L 263.81 647.83 L 255.69 647.83 C 251.27 647.83 247.69 651.41 247.69 655.83 L 247.69 696.38 L 215.00 696.38 L 215.00 655.89 C 215.00 651.47 211.42 647.89 207.00 647.89 L 71.82 647.89 L 71.82 605.41 L 175.64 360.41 L 212.00 360.41 M 212.00 352.41 L 175.64 352.41 C 172.43 352.41 169.52 354.33 168.27 357.29 L 63.82 603.78 L 63.82 647.89 C 63.82 652.31 67.40 655.89 71.82 655.89 L 207.00 655.89 L 207.00 696.44 C 207.00 700.86 210.58 704.44 215.00 704.44 L 247.69 704.44 C 252.11 704.44 255.69 700.86 255.69 696.44 L 255.69 655.89 L 263.81 655.89 C 268.23 655.89 271.81 652.31 271.81 647.89 L 271.81 608.89 C 271.81 604.47 268.23 600.89 263.81 600.89 L 255.69 600.89 L 255.69 504.00 C 255.69 499.58 252.11 496.00 247.69 496.00 L 215.00 496.00 C 210.58 496.00 207.00 499.58 207.00 504.00 L 207.00 600.83 L 119.94 600.83 L 219.33 363.50 C 220.35 361.04 220.08 358.24 218.61 356.02 C 217.14 353.80 214.66 352.46 212.00 352.44 Z" fill="#101129" fill-rule="nonzero" group-id="1,2" node-id="50" stroke="none" target-height="352.0314" target-width="207.98999" target-x="63.82" target-y="352.4086"></path><path d="M 903.00 700.44 C 900.79 700.44 899.00 698.65 899.00 696.44 L 899.00 655.88 C 899.00 653.67 897.21 651.88 895.00 651.88 L 759.82 651.88 C 757.61 651.88 755.82 650.09 755.82 647.88 L 755.82 604.60 L 860.00 358.88 C 860.63 357.40 862.07 356.44 863.68 356.44 L 900.00 356.44 C 901.34 356.44 902.59 357.11 903.33 358.22 C 904.07 359.34 904.20 360.75 903.69 361.98 L 804.25 599.32 C 803.74 600.55 803.87 601.96 804.61 603.08 C 805.35 604.19 806.60 604.86 807.94 604.86 L 894.94 604.86 C 897.15 604.86 898.94 603.07 898.94 600.86 L 898.94 504.00 C 898.94 501.79 900.73 500.00 902.94 500.00 L 935.63 500.00 C 937.84 500.00 939.63 501.79 939.63 504.00 L 939.63 600.83 C 939.63 603.04 941.42 604.83 943.63 604.83 L 951.75 604.83 C 953.96 604.83 955.75 606.62 955.75 608.83 L 955.75 647.83 C 955.75 650.04 953.96 651.83 951.75 651.83 L 943.63 651.83 C 941.42 651.83 939.63 653.62 939.63 655.83 L 939.63 696.39 C 939.63 698.60 937.84 700.39 935.63 700.39 Z" fill="#ffffff" fill-rule="nonzero" group-id="1,2" node-id="52" stroke="none" target-height="344" target-width="199.93" target-x="755.82" target-y="356.44"></path><path d="M 900.00 360.44 L 900.00 360.44 M 900.00 360.44 L 800.56 597.77 C 799.53 600.24 799.80 603.06 801.28 605.29 C 802.76 607.52 805.26 608.86 807.94 608.86 L 894.94 608.86 C 899.36 608.86 902.94 605.28 902.94 600.86 L 902.94 504.00 L 935.63 504.00 L 935.63 600.83 C 935.63 605.25 939.21 608.83 943.63 608.83 L 951.75 608.83 L 951.75 647.83 L 943.63 647.83 C 939.21 647.83 935.63 651.41 935.63 655.83 L 935.63 696.38 L 903.00 696.38 L 903.00 655.89 C 903.00 651.47 899.42 647.89 895.00 647.89 L 759.82 647.89 L 759.82 605.41 L 863.64 360.41 L 900.00 360.41 M 900.00 352.41 L 863.64 352.41 C 860.43 352.41 857.52 354.33 856.27 357.29 L 751.82 603.78 L 751.82 647.89 C 751.82 652.31 755.40 655.89 759.82 655.89 L 895.00 655.89 L 895.00 696.44 C 895.00 700.86 898.58 704.44 903.00 704.44 L 935.69 704.44 C 940.11 704.44 943.69 700.86 943.69 696.44 L 943.69 655.89 L 951.81 655.89 C 956.23 655.89 959.81 652.31 959.81 647.89 L 959.81 608.89 C 959.81 604.47 956.23 600.89 951.81 600.89 L 943.69 600.89 L 943.69 504.00 C 943.69 499.58 940.11 496.00 935.69 496.00 L 903.00 496.00 C 898.58 496.00 895.00 499.58 895.00 504.00 L 895.00 600.83 L 808.00 600.83 L 907.39 363.50 C 908.41 361.03 908.13 358.22 906.65 356.00 C 905.17 353.77 902.67 352.44 900.00 352.44 Z" fill="#101129" fill-rule="nonzero" group-id="1,2" node-id="54" stroke="none" target-height="352.0314" target-width="207.98999" target-x="751.82" target-y="352.4086"></path><path d="M 583.13 316.54 L 598.00 375.00 L 512.00 429.00 L 554.00 484.00 L 496.00 529.00 L 517.61 587.08 C 517.78 587.54 517.60 588.05 517.18 588.30 C 516.76 588.55 516.22 588.45 515.91 588.08 L 466.00 529.00 L 501.00 481.00 L 437.00 428.00 L 495.00 378.00 L 432.00 319.74 C 348.00 351.90 288.24 433.17 288.00 528.42 C 287.69 652.05 388.37 753.00 512.00 753.00 C 635.63 753.00 736.00 652.71 736.00 529.00 C 736.00 430.15 672.00 346.27 583.13 316.54 Z" fill="#ffffff" fill-rule="nonzero" group-id="1,2" node-id="56" stroke="#101129" stroke-linecap="round" stroke-width="8" target-height="436.46" target-width="448.31" target-x="287.69" target-y="316.54"></path><path d="M 583.13 316.54 L 598.00 375.00 L 512.00 429.00 L 554.00 484.00 L 496.00 529.00 L 516.10 588.71 L 610.10 730.41 C 687.14 692.88 736.01 614.69 736.00 529.00 C 736.00 430.15 672.00 346.27 583.13 316.54 Z" fill="#80adff" fill-rule="nonzero" group-id="1,2" node-id="58" stroke="#101129" stroke-linecap="round" stroke-width="8" target-height="413.86996" target-width="240.01294" target-x="496" target-y="316.54"></path><path d="M 656.00 491.00 C 656.00 508.67 641.67 523.00 624.00 523.00 C 606.33 523.00 592.00 508.67 592.00 491.00 C 592.00 473.33 606.33 459.00 624.00 459.00 C 641.67 459.00 656.00 473.33 656.00 491.00 Z" fill="#ffdc8a" fill-rule="nonzero" group-id="1,2" node-id="60" stroke="#101129" stroke-linecap="round" stroke-width="8" target-height="64" target-width="64" target-x="592" target-y="459"></path><path d="M 432.00 491.00 C 432.00 508.67 417.67 523.00 400.00 523.00 C 382.33 523.00 368.00 508.67 368.00 491.00 C 368.00 473.33 382.33 459.00 400.00 459.00 C 417.67 459.00 432.00 473.33 432.00 491.00 Z" fill="#81e6c1" fill-rule="nonzero" group-id="1,2" node-id="62" stroke="#101129" stroke-linecap="round" stroke-width="8" target-height="64" target-width="64" target-x="368" target-y="459"></path><path d="M 624.00 297.74 C 635.10 303.15 645.80 309.36 656.00 316.31" fill="none" group-id="1,2" node-id="64" stroke="#101129" stroke-linecap="round" stroke-width="8" target-height="18.570007" target-width="32" target-x="624" target-y="297.74"></path><path d="M 681.33 336.00 C 712.98 363.90 737.26 399.19 752.00 438.72" fill="none" group-id="1,2" node-id="66" stroke="#101129" stroke-linecap="round" stroke-width="8" target-height="102.72" target-width="70.66998" target-x="681.33" target-y="336"></path></g></g></svg>