<?xml version="1.0" standalone="no"?><!DOCTYPE svg PUBLIC "-//W3C//DTD SVG 1.1//EN" "http://www.w3.org/Graphics/SVG/1.1/DTD/svg11.dtd"><svg height="1140" node-id="1" sillyvg="true" template-height="1140" template-width="1350" version="1.1" viewBox="0 0 1350 1140" width="1350" xmlns="http://www.w3.org/2000/svg" xmlns:xlink="http://www.w3.org/1999/xlink"><defs node-id="40"></defs><path d="M 1064.40 1137.60 L 1347.80 1137.60" fill="none" node-id="42" stroke="#ced5e5" stroke-linecap="round" stroke-width="3" target-height="0" target-width="283.40002" target-x="1064.4" target-y="1137.6"></path><path d="M 481.30 1127.40 L 731.30 1127.40" fill="none" node-id="44" stroke="#ced5e5" stroke-linecap="round" stroke-width="3" target-height="0" target-width="250" target-x="481.3" target-y="1127.4"></path><path d="M 308.50 1038.30 L 308.50 912.60 L 260.20 912.60 L 260.20 1038.30 L 127.00 1073.00 L 127.00 1091.50 L 284.40 1073.00 L 441.70 1091.50 L 441.70 1073.00 L 308.50 1038.30 Z" fill="#bdbdbd" fill-rule="nonzero" node-id="46" stroke="none" target-height="178.90002" target-width="314.7" target-x="127" target-y="912.6"></path><path d="M 477.60 1003.00 L 464.40 1046.40 C 464.40 1046.40 469.90 1069.80 490.80 1069.60 C 511.70 1069.40 508.40 1061.90 508.40 1061.90 L 529.70 1009.10 L 477.60 1003.00 Z" fill="#ffdfd7" fill-rule="nonzero" node-id="48" stroke="none" target-height="66.80005" target-width="65.30002" target-x="464.4" target-y="1003"></path><path d="M 466.60 1039.50 C 466.60 1039.50 463.10 1039.60 460.30 1046.70 C 457.50 1053.80 446.40 1079.20 446.40 1079.20 L 511.60 1119.40 L 579.70 1125.60 C 579.70 1125.60 591.30 1119.50 583.10 1106.90 C 574.90 1094.40 533.90 1081.50 533.90 1081.50 L 512.40 1055.10 C 512.40 1055.10 499.00 1057.70 484.80 1052.70 C 470.50 1047.80 466.60 1039.50 466.60 1039.50 Z" fill="#1a051d" fill-rule="nonzero" node-id="50" stroke="none" target-height="86.099976" target-width="144.9" target-x="446.4" target-y="1039.5"></path><path d="M 1219.10 939.30 L 1193.10 939.30 L 1199.30 719.50 L 1212.90 719.50 L 1219.10 939.30 Z" fill="#e0e0e0" fill-rule="nonzero" node-id="52" stroke="none" target-height="219.79999" target-width="26" target-x="1193.1" target-y="719.5"></path><path d="M 695.30 1073.80 L 674.60 1073.80 L 653.90 1073.80 L 546.50 1104.00 L 546.50 1114.20 L 674.60 1114.20 L 802.70 1114.20 L 802.70 1104.00 L 695.30 1073.80 Z" fill="#bdbdbd" fill-rule="nonzero" node-id="54" stroke="none" target-height="40.399902" target-width="256.2" target-x="546.5" target-y="1073.8"></path><path d="M 317.10 458.40 C 317.10 458.40 332.60 409.10 332.80 408.20 C 333.10 407.30 315.50 365.10 326.40 342.00 C 337.20 318.80 361.60 321.20 371.20 321.50 C 380.90 321.80 413.40 329.70 411.90 350.20 C 410.40 370.70 402.80 410.90 395.20 421.10 C 387.60 431.30 353.30 418.50 353.30 418.50 L 352.80 454.00 L 317.10 458.40 Z" fill="#ffdfd7" fill-rule="nonzero" node-id="56" stroke="none" target-height="139.6" target-width="97.899994" target-x="315.5" target-y="318.8"></path><path d="M 505.90 1023.10 L 505.60 1063.00 C 505.60 1063.00 518.60 1083.80 527.60 1084.00 C 536.50 1084.10 555.10 1088.20 559.30 1064.90 C 563.40 1041.60 566.80 1024.60 566.80 1024.60 L 505.90 1023.10 Z" fill="#ffdfd7" fill-rule="nonzero" node-id="58" stroke="none" target-height="65.099976" target-width="61.19998" target-x="505.6" target-y="1023.1"></path><path d="M 121.80 844.00 C 121.80 844.00 97.80 726.50 94.30 663.20 C 90.80 599.90 97.80 533.10 140.00 530.40 C 182.20 527.80 213.00 599.00 218.30 627.10 C 223.50 655.30 241.70 781.30 121.80 844.00 Z" fill="#e0e0e0" fill-rule="nonzero" node-id="60" stroke="none" target-height="316.2" target-width="150.9" target-x="90.8" target-y="527.8"></path><path d="M 144.00 862.80 C 144.00 862.80 126.40 862.40 127.30 879.10 C 128.20 895.80 135.20 912.50 195.90 916.00 C 256.60 919.50 389.80 910.70 415.70 903.30 C 441.60 895.80 457.00 880.40 432.00 854.50 C 406.90 828.60 277.70 844.40 247.40 847.50 C 216.90 850.50 144.00 862.80 144.00 862.80 Z" fill="#e0e0e0" fill-rule="nonzero" node-id="62" stroke="none" target-height="90.900024" target-width="330.6" target-x="126.4" target-y="828.6"></path><path d="M 435.60 1135.10 C 445.82 1135.10 454.10 1126.82 454.10 1116.60 C 454.10 1106.38 445.82 1098.10 435.60 1098.10 C 425.38 1098.10 417.10 1106.38 417.10 1116.60 C 417.10 1126.82 425.38 1135.10 435.60 1135.10 Z" fill="#bdbdbd" fill-rule="nonzero" node-id="64" stroke="none" target-height="37" target-width="37" target-x="417.1" target-y="1098.1"></path><path d="M 137.30 1135.10 C 147.52 1135.10 155.80 1126.82 155.80 1116.60 C 155.80 1106.38 147.52 1098.10 137.30 1098.10 C 127.08 1098.10 118.80 1106.38 118.80 1116.60 C 118.80 1126.82 127.08 1135.10 137.30 1135.10 Z" fill="#bdbdbd" fill-rule="nonzero" node-id="66" stroke="none" target-height="37" target-width="37" target-x="118.8" target-y="1098.1"></path><path d="M 709.10 698.40 L 640.10 698.40 C 636.20 698.40 633.00 695.20 633.00 691.30 L 633.00 665.00 L 716.10 665.00 L 716.10 691.30 C 716.10 695.20 713.00 698.40 709.10 698.40 Z" fill="#bdbdbd" fill-rule="nonzero" node-id="68" stroke="none" target-height="33.400024" target-width="83.099976" target-x="633" target-y="665"></path><path d="M 695.20 698.40 L 653.90 698.40 L 653.90 1073.80 L 695.20 1073.80 L 695.20 698.40 Z" fill="#bdbdbd" fill-rule="nonzero" node-id="70" stroke="none" target-height="375.40002" target-width="41.299988" target-x="653.9" target-y="698.4"></path><path d="M 889.10 665.00 L 460.10 665.00 L 460.10 650.00 L 889.10 633.30 L 889.10 665.00 Z" fill="#e0e0e0" fill-rule="nonzero" node-id="72" stroke="none" target-height="31.700012" target-width="428.99997" target-x="460.1" target-y="633.3"></path><path d="M 412.20 744.10 C 412.20 744.10 526.50 748.50 553.50 754.90 C 580.50 761.30 595.50 775.90 594.20 803.20 C 592.90 830.50 514.90 1012.20 514.90 1012.20 L 468.60 1005.80 L 489.70 863.40 L 412.20 744.10 Z" fill="#6d8bf0" fill-rule="nonzero" node-id="74" stroke="none" target-height="268.10004" target-width="183.29999" target-x="412.2" target-y="744.1"></path><path d="M 465.60 983.20 L 516.20 991.10 L 511.80 1016.70 L 461.60 1009.00 L 465.60 983.20 Z" fill="#6d8bf0" fill-rule="nonzero" node-id="76" stroke="none" target-height="33.5" target-width="54.600006" target-x="461.6" target-y="983.2"></path><path d="M 505.60 1063.00 C 505.60 1063.00 498.40 1065.80 499.00 1073.80 C 499.60 1081.80 501.30 1116.90 501.30 1116.90 C 501.30 1116.90 500.00 1127.60 525.00 1127.50 C 550.10 1127.40 656.60 1126.30 656.60 1126.30 C 656.60 1126.30 664.80 1113.70 652.50 1104.30 C 640.20 1094.90 559.50 1063.00 559.50 1063.00 C 559.50 1063.00 550.50 1070.90 531.50 1071.10 C 512.50 1071.20 505.60 1063.00 505.60 1063.00 Z" fill="#1a051d" fill-rule="nonzero" node-id="78" stroke="none" target-height="64.599976" target-width="166.4" target-x="498.4" target-y="1063"></path><path d="M 332.00 410.90 C 332.00 410.90 315.40 388.60 317.10 359.30 C 318.80 330.00 320.20 310.40 334.60 305.70 C 349.00 301.00 354.80 309.80 354.80 309.80 C 354.80 309.80 367.70 300.10 382.30 301.30 C 397.00 302.50 399.90 321.30 399.90 321.30 C 399.90 321.30 409.00 313.00 419.80 316.20 C 430.60 319.40 423.10 340.20 411.90 339.40 C 411.90 339.40 391.60 337.30 368.20 341.50 L 362.30 368.20 L 353.80 366.70 C 353.80 366.70 357.30 352.00 349.10 350.30 C 340.90 348.50 333.60 358.20 338.00 369.90 C 342.40 381.60 340.60 400.60 332.00 410.90 Z" fill="#fe8163" fill-rule="nonzero" node-id="80" stroke="none" target-height="110.79999" target-width="115.20001" target-x="315.4" target-y="300.1"></path><path d="M 643.48 643.21 C 640.81 643.31 638.60 641.18 638.60 638.52 L 638.60 638.52 C 638.60 636.04 640.53 633.98 643.01 633.84 L 801.14 624.39 C 803.85 624.23 806.19 626.25 806.42 628.95 L 806.65 631.58 C 806.89 634.42 804.71 636.89 801.86 637.00 L 643.48 643.21 Z" fill="#4f4f4f" fill-rule="nonzero" node-id="82" stroke="none" target-height="19.083984" target-width="168.294" target-x="638.6" target-y="624.229"></path><path d="M 793.00 632.90 L 855.60 480.00 L 861.51 482.50 C 864.01 483.56 865.21 486.41 864.22 488.93 L 807.54 633.31 C 806.53 635.89 803.60 637.16 801.02 636.12 L 793.00 632.90 Z" fill="#4f4f4f" fill-rule="nonzero" node-id="84" stroke="none" target-height="157.15698" target-width="72.211" target-x="793" target-y="480"></path><path d="M 808.07 192.67 L 798.10 182.70 L 763.31 217.49 L 773.28 227.46 L 808.07 192.67 Z" fill="#4a6ad6" fill-rule="nonzero" node-id="86" stroke="none" target-height="44.76001" target-width="44.76001" target-x="763.31" target-y="182.7"></path><path d="M 170.92 135.66 L 159.75 144.27 L 189.76 183.25 L 200.94 174.65 L 170.92 135.66 Z" fill="#ffc933" fill-rule="nonzero" node-id="88" stroke="none" target-height="47.587006" target-width="41.184006" target-x="159.752" target-y="135.665"></path><path d="M 79.45 391.65 L 66.72 385.59 L 45.55 430.00 L 58.28 436.07 L 79.45 391.65 Z" fill="#ffc933" fill-rule="nonzero" node-id="90" stroke="none" target-height="50.47998" target-width="33.898804" target-x="45.5532" target-y="385.587"></path><path d="M 951.92 195.98 L 937.83 195.46 L 935.99 244.62 L 950.08 245.15 L 951.92 195.98 Z" fill="#ffc933" fill-rule="nonzero" node-id="92" stroke="none" target-height="49.694992" target-width="15.934998" target-x="935.989" target-y="195.455"></path><path d="M 13.40 261.40 C 20.69 261.40 26.60 255.49 26.60 248.20 C 26.60 240.91 20.69 235.00 13.40 235.00 C 6.11 235.00 0.20 240.91 0.20 248.20 C 0.20 255.49 6.11 261.40 13.40 261.40 Z" fill="#4a6ad6" fill-rule="nonzero" node-id="94" stroke="none" target-height="26.399994" target-width="26.399988" target-x="0.200012" target-y="235"></path><path d="M 777.30 85.20 C 782.99 85.20 787.60 80.59 787.60 74.90 C 787.60 69.21 782.99 64.60 777.30 64.60 C 771.61 64.60 767.00 69.21 767.00 74.90 C 767.00 80.59 771.61 85.20 777.30 85.20 Z" fill="#ffc933" fill-rule="nonzero" node-id="96" stroke="none" target-height="20.599998" target-width="20.599976" target-x="767" target-y="64.6"></path><path d="M 639.20 42.90 C 647.32 42.90 653.90 36.32 653.90 28.20 C 653.90 20.08 647.32 13.50 639.20 13.50 C 631.08 13.50 624.50 20.08 624.50 28.20 C 624.50 36.32 631.08 42.90 639.20 42.90 Z" fill="#4a6ad6" fill-rule="nonzero" node-id="98" stroke="none" target-height="29.400002" target-width="29.400024" target-x="624.5" target-y="13.5"></path><path d="M 1296.00 1136.20 L 1116.20 1136.20 L 1085.20 933.10 L 1327.00 933.10 L 1296.00 1136.20 Z" fill="#bdbdbd" fill-rule="nonzero" node-id="100" stroke="none" target-height="203.09998" target-width="241.80005" target-x="1085.2" target-y="933.1"></path><path d="M 1206.10 734.10 C 1267.29 734.10 1316.90 684.49 1316.90 623.30 C 1316.90 562.11 1267.29 512.50 1206.10 512.50 C 1144.91 512.50 1095.30 562.11 1095.30 623.30 C 1095.30 684.49 1144.91 734.10 1206.10 734.10 Z" fill="#52cb96" fill-rule="nonzero" node-id="102" stroke="none" target-height="221.59998" target-width="221.59998" target-x="1095.3" target-y="512.5"></path><path d="M 235.10 31.20 C 242.06 31.20 247.70 25.56 247.70 18.60 C 247.70 11.64 242.06 6.00 235.10 6.00 C 228.14 6.00 222.50 11.64 222.50 18.60 C 222.50 25.56 228.14 31.20 235.10 31.20 Z" fill="#4a6ad6" fill-rule="nonzero" node-id="104" stroke="none" target-height="25.2" target-width="25.199997" target-x="222.5" target-y="6"></path><path d="M 236.80 729.10 C 236.80 729.10 229.30 742.30 231.30 772.60 C 233.30 802.90 250.40 849.50 347.80 859.20 C 445.20 868.90 507.20 868.00 507.20 868.00 L 507.20 1029.30 L 571.40 1029.30 C 571.40 1029.30 582.00 972.60 584.60 954.10 C 587.20 935.60 605.70 855.20 597.80 814.70 C 589.90 774.30 551.20 768.10 523.10 762.80 C 495.00 757.50 385.90 739.50 385.90 739.50 L 236.80 729.10 Z" fill="#4a6ad6" fill-rule="nonzero" node-id="106" stroke="none" target-height="300.20007" target-width="376.40002" target-x="229.3" target-y="729.1"></path><path d="M 505.80 1033.50 L 505.60 1063.00" fill="none" node-id="108" stroke="#ffffff" stroke-linecap="round" stroke-width="3" target-height="29.5" target-width="0.19998169" target-x="505.6" target-y="1033.5"></path><path d="M 578.20 1033.50 L 498.40 1033.50 L 498.40 1003.00 L 583.30 1004.20 L 578.20 1033.50 Z" fill="#4a6ad6" fill-rule="nonzero" node-id="110" stroke="none" target-height="30.5" target-width="84.899994" target-x="498.4" target-y="1003"></path><path d="M 694.70 626.40 C 679.60 618.50 654.40 621.90 646.00 623.20 C 637.60 624.50 624.80 624.70 624.80 624.70 L 493.70 611.90 L 440.40 553.20 C 398.20 562.90 415.90 595.40 415.90 595.40 L 473.60 649.20 L 627.10 644.00 C 647.90 644.70 674.30 635.80 678.40 635.10 C 682.60 634.30 709.80 634.30 694.70 626.40 Z" fill="#ffdfd7" fill-rule="nonzero" node-id="112" stroke="none" target-height="96" target-width="311.59998" target-x="398.2" target-y="553.2"></path><path d="M 230.10 727.40 C 230.10 727.40 271.40 739.30 299.60 737.10 C 327.70 734.90 385.80 739.70 385.80 739.70 L 385.80 566.90 L 421.80 613.40 C 421.80 613.40 441.10 572.10 460.00 557.10 C 460.00 557.10 388.80 475.00 362.40 458.80 C 336.00 442.50 314.50 454.80 309.20 469.40 C 304.00 483.80 230.10 727.40 230.10 727.40 Z" fill="#1a051d" fill-rule="nonzero" node-id="114" stroke="none" target-height="297.2" target-width="229.9" target-x="230.1" target-y="442.5"></path></svg>