<svg xmlns="http://www.w3.org/2000/svg" id="icon-tag-view-active" viewBox="0 0 1024 1024"><path fill="currentColor" d="M469.333 788.48c-141.653 0-256.853-115.2-256.853-256.853s115.2-256.854 256.853-256.854 256.854 115.2 256.854 256.854-115.2 256.853-256.854 256.853z m0-488.448c-127.658 0-231.594 103.936-231.594 231.595S341.675 763.22 469.333 763.22s231.595-103.936 231.595-231.594-103.936-231.595-231.595-231.595z"  ></path><path fill="currentColor" d="M469.333 371.541c88.406 0 160.086 71.68 160.086 160.086s-71.68 160.085-160.086 160.085-160.085-71.68-160.085-160.085 71.68-160.086 160.085-160.086z"  ></path></svg>