<svg xmlns="http://www.w3.org/2000/svg" viewBox="0 0 1024 1024"><path d="M475.19999999 84.5568c202.7008 0 362.6496 71.0912 373.50400001 163.6608l0.40959999 4.5568h0.5632v232.2432H795.19999999V364.288c-63.1552 48.3328-175.5648 80.5888-307.5584 82.5088l-12.4416 0.0768c-133.1968 0-247.7312-30.8224-313.93279999-78.08L155.2 364.288v136.7552c0 63.5136 128.6144 126.208 319.99999999 126.208 63.1808 0 119.5264-6.8352 166.656-18.2784-4.9408 23.552-6.4 43.5968-4.4032 60.2112-48.7936 10.6752-103.7056 16.6144-162.2528 16.6144-133.1968 0-247.7312-30.7968-313.93279999-78.08l-6.0672-4.5056v125.824c0 63.5136 128.6144 126.2336 319.99999999 126.2336 74.3168 0 139.1616-9.4464 190.6688-24.7296l15.18080001 55.5008a631.04 631.04 0 0 1-89.6256 19.584 803.8656 803.8656 0 0 1-116.22400001 8.192c-206.7456 0-369.3312-73.984-374.3488-169.1392l-0.128-4.5568V252.7744h0.56320001C107.32799999 158.0032 269.1712 84.5824 475.19999999 84.5824z m335.18080001 637.696c12.3648 0 22.4 10.0608 22.39999999 22.4256l-0.0768 74.112a22.3744 22.3744 0 0 1 8.96-9.3184c15.4112-8.704 27.0336-24.6528 33.408-46.592a22.4 22.4 0 1 1 43.008 12.4928c-9.6 33.024-28.416 58.4704-54.39999999 73.1136a22.4 22.4 0 0 1-30.92480001-9.216v40.7296a22.4 22.4 0 0 1-44.79999999 0V744.704c0-12.3648 10.0608-22.4 22.4256-22.4z m-15.6672-184.7808a22.784 22.784 0 0 1 31.51359999 0.256c9.8816 9.8816 24.6528 26.624 40.06400001 47.36 25.3184 34.048 44.2624 68.4544 53.24799999 101.9136a22.4256 22.4256 0 0 1-43.3664 11.3408c-9.8816-36.6848-35.584-76.3392-65.8432-111.488-39.7824 46.1824-69.76 97.152-69.75999999 138.5984 0 36.992 13.056 67.4048 33.89439999 81.5616l5.632 5.3248a22.4 22.4 0 0 1-30.77119999 31.7696c-33.8432-22.9376-53.5552-67.3792-53.55520001-118.656 0-39.1424 18.1248-81.8944 48.2816-125.8752a461.312 461.312 0 0 1 50.688-62.1056zM475.19999999 143.0016c-187.7504 0.0512-314.7776 60.416-319.53919999 122.7264 4.8128 62.2336 131.7888 122.5984 319.53919999 122.5984s314.7776-60.3648 319.5392-122.6496C789.92639999 203.4176 662.95039999 143.0016 475.19999999 143.0016z"  ></path></svg>