<svg t="1756389060526" class="icon" viewBox="0 0 1024 1024" version="1.1" xmlns="http://www.w3.org/2000/svg" p-id="29147" width="48" height="48"><path d="M465.454545 9.402182c245.697939 0 439.575273 86.171152 452.732122 198.376727l0.496485 5.523394h0.682666v281.506909H853.333333V348.470303c-76.551758 58.585212-212.805818 97.683394-372.79806 100.010667l-15.080728 0.093091c-161.450667 0-300.280242-37.360485-380.524606-94.642425L77.575758 348.470303v165.763879c0 76.986182 155.896242 152.979394 387.878787 152.979394 76.582788 0 144.880485-8.285091 202.007273-22.155637-5.988848 28.547879-7.757576 52.844606-5.337212 72.983273-59.143758 12.939636-125.703758 20.138667-196.670061 20.138667-161.450667 0-300.280242-37.329455-380.524606-94.642424l-7.354181-5.461334v152.51394c0 76.986182 155.896242 153.010424 387.878787 153.010424 90.08097 0 168.680727-11.450182 231.113697-29.975273l18.40097 67.273697a764.89697 764.89697 0 0 1-108.637091 23.738182 974.382545 974.382545 0 0 1-140.877576 9.929697c-250.600727 0-447.674182-89.677576-453.756121-205.017212l-0.155151-5.523394V213.302303h0.682666C19.549091 98.428121 215.722667 9.433212 465.454545 9.433212z m406.279758 772.964848c14.987636 0 27.151515 12.194909 27.151515 27.182546l-0.093091 89.832727a27.120485 27.120485 0 0 1 10.860606-11.29503c18.680242-10.550303 32.768-29.882182 40.494546-56.475152a27.151515 27.151515 0 1 1 52.130909 15.142788c-11.636364 40.029091-34.443636 70.873212-65.939394 88.622546a27.151515 27.151515 0 0 1-37.484606-11.17091v49.369213a27.151515 27.151515 0 0 1-54.30303 0V809.580606c0-14.987636 12.194909-27.151515 27.182545-27.151515z m-18.990545-223.976727a27.61697 27.61697 0 0 1 38.198303 0.310303c11.977697 11.977697 29.882182 32.271515 48.562424 57.406061 30.68897 41.270303 53.651394 82.97503 64.54303 123.531636a27.182545 27.182545 0 0 1-52.565333 13.746424c-11.977697-44.466424-43.132121-92.532364-79.80994-135.136969-48.221091 55.978667-84.557576 117.76-84.557575 167.99806 0 44.838788 15.825455 81.702788 41.084121 98.862546l6.826667 6.454303a27.151515 27.151515 0 0 1-37.298425 38.508606c-41.022061-27.803152-64.915394-81.671758-64.915394-143.825455 0-47.445333 21.969455-99.265939 58.523152-152.576a559.166061 559.166061 0 0 1 61.44-75.279515zM465.454545 80.244364C237.878303 80.306424 83.905939 153.475879 78.134303 229.003636 83.968 304.407273 237.878303 377.607758 465.454545 377.607758S847.003152 304.407273 852.774788 228.941576C846.941091 153.475879 693.030788 80.244364 465.454545 80.244364z" p-id="29148"></path></svg>