<svg xmlns="http://www.w3.org/2000/svg" viewBox="0 0 1024 1024"><path d="M740.144 619.728a24 24 0 0 0-29.744 16.352c-18.176 62.56-52.272 109.392-98.56 135.472a24 24 0 0 0 11.808 44.896 23.712 23.712 0 0 0 11.744-3.088c57.456-32.352 99.328-89.024 121.104-163.872a24 24 0 0 0-16.352-29.76z" fill="#666666" ></path><path d="M410.208 764.016c-61.856-41.952-98.768-128.112-98.768-230.4 0-154.656 154.224-337.344 206.4-394.768 43.792 48.112 159.296 184.224 195.504 318.704a24.032 24.032 0 0 0 46.4-12.48c-48-178.496-217.6-350.944-224.832-358.208a24.736 24.736 0 0 0-34.08 0c-9.696 9.776-237.392 241.696-237.392 446.752 0 118.304 44.8 219.312 119.84 270.192a24 24 0 1 0 26.928-39.712z" fill="#666666" ></path><path d="M517.936 557.68a24 24 0 0 0-24 24v338.336a24 24 0 0 0 48 0V581.68a24 24 0 0 0-24-24z" fill="#1771B9" ></path><path d="M760.048 541.104a42.832 42.832 0 0 0-1.28-4.48 36.8 36.8 0 0 0-2.224-4.16 21.856 21.856 0 0 0-3.04-3.52 24.608 24.608 0 0 0-33.92 0 30.192 30.192 0 0 0-3.04 3.52 20.272 20.272 0 0 0-2.096 4.16 25.488 25.488 0 0 0-1.44 4.48 24.384 24.384 0 0 0-0.464 4.8 23.024 23.024 0 0 0 1.904 9.12 24.624 24.624 0 0 0 5.136 7.84 23.04 23.04 0 0 0 7.824 5.12 22.288 22.288 0 0 0 9.136 1.92 24 24 0 0 0 16.96-7.04 28.112 28.112 0 0 0 5.264-7.84 25.328 25.328 0 0 0 1.776-9.12 24.496 24.496 0 0 0-0.496-4.8z" fill="#666666" ></path></svg>