<svg t="1756305127175" class="icon" viewBox="0 0 1024 1024" version="1.1" xmlns="http://www.w3.org/2000/svg" p-id="22356" width="48" height="48"><path d="M959.718832 123.963683C872.444401 50.185297 704.593576 0.299912 511.850044 0.299912S151.255687 50.185297 63.981255 123.963683C23.193205 158.453578 0 198.04198 0 240.22962v543.840672c0 132.461193 229.132871 239.929708 511.850044 239.929708s511.850044-107.468515 511.850044-239.929708v-543.840672c0-42.18764-23.193205-81.776042-63.981256-116.265937zM87.774285 189.64444c19.794201-21.893586 50.685151-43.087377 89.373816-61.182075 42.287611-19.794201 92.073025-35.489603 147.956653-46.586352C384.087474 70.17944 446.869081 64.281168 511.850044 64.281168s127.76257 5.898272 186.745289 17.594845c55.883628 11.096749 105.669042 26.792151 147.956654 46.586352 38.688665 18.094699 69.579615 39.28849 89.373816 61.182075 15.795372 17.494875 23.793029 34.489896 23.793029 50.48521 0 16.095285-7.997657 33.090306-23.793029 50.485209-19.794201 21.893586-50.685151 43.087377-89.373816 61.182075-42.287611 19.894172-92.073025 35.489603-147.956654 46.586352-58.98272 11.696573-121.864298 17.594845-186.745289 17.594845s-127.76257-5.898272-186.74529-17.594845c-55.883628-11.096749-105.669042-26.792151-147.956653-46.586352-38.688665-18.094699-69.579615-39.28849-89.373816-61.182075C71.978912 273.319926 63.981255 256.324905 63.981255 240.22962s7.997657-33.090306 23.79303-50.58518zM63.981255 356.495558c87.274431 73.778385 255.125256 123.66377 447.868789 123.66377s360.594357-49.885385 447.868788-123.66377v155.254515c0 16.095285-7.997657 33.090306-23.793029 50.48521-19.794201 21.893586-50.685151 43.087377-89.373816 61.182075-42.287611 19.794201-92.073025 35.489603-147.956654 46.586352-58.98272 11.696573-121.864298 17.594845-186.745289 17.594845s-127.76257-5.898272-186.74529-17.594845c-55.883628-11.096749-105.669042-26.792151-147.956653-46.586352-38.688665-18.094699-69.579615-39.28849-89.373816-61.182075C71.978912 544.740408 63.981255 527.745387 63.981255 511.750073V356.495558z m895.737577 427.574734c0 16.095285-7.997657 33.090306-23.793029 50.485209-19.794201 21.893586-50.685151 43.087377-89.373816 61.182076-42.287611 19.894172-92.073025 35.489603-147.956654 46.586352-58.98272 11.696573-121.864298 17.594845-186.745289 17.594845s-127.76257-5.898272-186.74529-17.594845c-55.883628-11.096749-105.669042-26.792151-147.956653-46.586352-38.688665-18.094699-69.579615-39.28849-89.373816-61.182076C71.978912 817.160597 63.981255 800.165576 63.981255 784.070292V627.91604c87.274431 73.778385 255.125256 123.66377 447.868789 123.663771s360.594357-49.885385 447.868788-123.663771v156.154252z" p-id="22357"></path><path d="M167.950796 519.847701m-39.988285 0a39.988285 39.988285 0 1 0 79.976569 0 39.988285 39.988285 0 1 0-79.976569 0Z" p-id="22358"></path><path d="M167.950796 791.768037m-39.988285 0a39.988285 39.988285 0 1 0 79.976569 0 39.988285 39.988285 0 1 0-79.976569 0Z" p-id="22359"></path></svg>