<svg xmlns="http://www.w3.org/2000/svg" id="icon-db-dm" viewBox="0 0 1024 1024"><path d="M335.303111 324.096c0 48.071111-46.819556 198.542222 145.635556 218.794667 84.081778 18.773333 105.585778 60.643556 98.304 186.026666a397.653333 397.653333 0 0 1-1.365334 30.264889c-29.468444 15.473778-50.232889 24.803556-62.350222 27.989334 1.934222-17.351111 21.617778-154.339556-18.659555-186.254223-40.277333-31.857778-68.266667-35.783111-109.795556-41.244444-20.081778-2.673778-51.484444-19.512889-75.264-34.133333-23.779556-14.563556-37.660444-42.780444-41.870222-69.176889-2.844444-17.635556-3.640889-43.121778-2.503111-76.458667 15.303111-17.066667 37.944889-35.726222 67.868444-55.751111z m80.554667-46.193778c-1.308444 17.408-28.444444 168.391111 49.436444 204.231111 28.444444 13.141333 40.391111 18.204444 60.472889 22.926223 20.081778 4.721778 70.940444 11.491556 91.989333 32.768 8.533333 8.533333 21.390222 23.04 28.558223 41.415111 10.467556 27.022222 13.255111 65.422222 13.255111 105.187555v30.037334c-22.698667 17.009778-41.870222 28.842667-57.685334 35.669333 0-20.366222 7.281778-115.882667-11.889777-155.192889-19.171556-39.253333-39.708444-57.742222-73.841778-62.293333-34.133333-4.551111-89.144889-18.659556-111.104-37.148445-22.016-18.432-50.801778-46.193778-50.801778-92.899555 0-31.118222 0.739556-61.041778 2.218667-89.827556 22.072889-16.099556 41.870222-27.704889 59.392-34.872889z m81.863111-36.522666c-2.161778 34.474667-7.338667 116.736 9.159111 159.459555 16.497778 42.723556 51.370667 66.56 89.713778 73.159111 38.343111 6.542222 106.496 29.127111 123.448889 69.973334 15.473778 37.148444 17.066667 59.335111 17.294222 77.539555v32.654222c-21.048889 19.171556-39.651556 34.133333-55.864889 44.942223 0-56.149333-0.170667-109.624889-16.497778-141.084445-16.270222-31.402667-37.717333-50.232889-84.423111-61.098667-46.648889-10.922667-95.459556-15.587556-124.928-53.703111-19.683556-25.372444-26.794667-67.299556-21.447111-125.781333l4.835556-49.550222c19.342222-10.467556 38.912-19.342222 58.709333-26.510222z" fill="#E8130D" ></path><path d="M235.804444 406.243556c2.275556 35.896889 5.176889 60.017778 8.760889 72.362666 10.126222 34.816 39.025778 60.928 51.939556 68.721778 20.935111 12.686222 61.895111 29.923556 93.240889 34.133333 20.878222 2.730667 43.406222 9.443556 67.697778 20.081778 22.755556 15.018667 34.474667 29.582222 35.271111 43.804445 4.835556 91.420444-9.216 122.311111-15.303111 154.453333-69.632 42.552889-357.432889 46.933333-363.349334-117.532445-3.982222-109.681778 36.579556-201.671111 121.742222-276.024888z m641.308445-133.632c63.374222 92.16 29.297778 209.749333-102.172445 352.824888a188.245333 188.245333 0 0 0-3.356444-32.085333c-16.327111-72.704-45.511111-104.106667-81.294222-117.304889-35.84-13.255111-139.832889-14.506667-160.028445-87.779555a415.459556 415.459556 0 0 1 6.599111-164.010667c161.848889-45.454222 275.285333-29.297778 340.252445 48.355556z" fill="#1D2683" ></path></svg>