<svg xmlns="http://www.w3.org/2000/svg" id="icon-gauss" viewBox="0 0 1024 1024"><path d="M936.789333 493.2608H562.961067a58.026667 58.026667 0 0 0-58.0608 58.0608v296.8576a58.026667 58.026667 0 0 0 58.0608 58.0608h373.828266a58.026667 58.026667 0 0 0 58.0608-58.0608v-296.8576a58.094933 58.094933 0 0 0-58.0608-58.0608z m-216.029866 305.902933c-16.725333 16.725333-45.021867 29.320533-79.496534 29.320534-67.208533 0-115.985067-47.069867-115.985066-129.297067 0-81.851733 50.4832-131.003733 117.0432-131.003733 35.464533 0 59.357867 15.701333 74.683733 31.744l-21.504 25.258666c-12.253867-12.629333-27.648-22.528-51.848533-22.528-46.728533 0-77.789867 36.1472-77.789867 95.197867 0 59.6992 27.648 96.187733 79.496533 96.187733 15.325867 0 30.685867-4.437333 39.560534-12.288v-59.016533h-49.800534v-32.426667h85.640534v108.8512z m124.6208 24.8832h-67.208534v-251.0848h65.160534c77.073067 0 121.105067 42.666667 121.105066 124.5184 0 81.544533-44.032 126.5664-119.057066 126.5664z" fill="#417CB7" ></path><path d="M840.6016 605.047467h-22.869333v186.606933h22.869333c53.896533 0 82.909867-31.709867 82.909867-94.139733 0-62.805333-28.9792-92.4672-82.909867-92.4672z" fill="#417CB7" ></path><path d="M409.565867 117.794133c-72.157867 0-114.4832 59.869867-114.4832 143.2576 0 131.1744 201.250133 394.069333 201.250133 394.069334V218.794667c0.068267 0 2.048-101.000533-86.766933-101.000534zM180.974933 259.584c-27.648-5.632-87.1424 21.7088-87.1424 139.093333 0 137.3184 368.264533 278.357333 368.264534 278.357334S246.101333 272.7936 180.974933 259.584zM93.525333 686.933333c93.5936 53.384533 346.487467 27.409067 346.487467 27.409067S85.981867 497.425067 47.274667 497.493333c-33.314133 0.068267-29.457067 146.2272 46.250666 189.44z m152.2688 154.385067c71.304533 0 183.944533-98.6112 183.944534-98.6112H125.2352s32.529067 98.6112 120.558933 98.6112z m366.592-723.524267c-88.951467 0-86.903467 101.000533-86.903466 101.000534v266.478933c9.966933-8.2944 21.7088-14.165333 34.474666-14.165333h87.620267c42.222933-73.5232 79.291733-153.838933 79.291733-210.056534-0.1024-83.319467-42.359467-143.2576-114.4832-143.2576z m228.488534 141.789867c-32.3584 6.519467-101.819733 109.499733-163.703467 211.524267h219.921067c18.944-23.7568 30.958933-48.128 30.958933-72.430934 0.034133-117.384533-59.528533-144.6912-87.176533-139.093333z" fill="#C91E1D" ></path></svg>