<svg xmlns="http://www.w3.org/2000/svg" id="icon-mariadb" viewBox="0 0 1088 1024"><path d="M1016.64 171.84c-15.68 0.64-10.88 5.12-45.12 13.44-34.56 8.64-76.8 5.76-113.92 21.44-111.04 46.4-133.44 205.76-234.24 262.72-75.52 42.56-151.68 46.08-219.84 67.52-45.12 14.08-94.08 42.88-135.04 78.08-31.68 27.2-32.32 51.2-65.6 85.44-35.2 36.48-140.48 0.64-188.16 56.64 15.36 15.36 22.08 19.84 52.48 15.68-6.4 11.84-43.2 21.76-35.84 39.36 7.68 18.24 96.96 30.72 177.92-18.24 37.76-22.72 67.84-55.68 126.72-63.68 76.16-10.24 163.84 6.4 251.84 19.2-13.12 39.04-39.36 64.96-60.48 96-6.4 7.04 13.12 7.68 35.52 3.52 40.32-9.92 69.12-17.92 99.52-35.52 37.12-21.76 42.88-77.44 88.64-89.28 25.6 39.04 94.72 48.32 137.6 16.96-37.76-10.56-48-90.88-35.52-126.4 12.16-33.6 24-87.04 36.16-131.2 13.12-47.68 17.92-107.52 33.6-131.84 23.68-36.48 49.92-48.96 72.64-69.44 22.72-20.48 43.52-40.64 42.88-87.68 0.32-14.72-7.36-23.04-21.76-22.72z" fill="#002B64" ></path><path d="M47.68 808.96c57.92 8.32 92.8 0 139.2-20.16 39.36-16.96 77.44-52.48 124.16-67.52 68.48-22.08 143.68 0 216.64 4.48 17.92 0.96 35.52 0.96 53.12-0.96 27.2-16.64 26.56-79.36 53.12-85.12-0.64 88-36.8 140.48-74.56 191.68 79.36-14.08 127.04-59.84 159.04-121.28 9.6-18.56 17.92-38.72 25.28-59.52 11.52 8.64 4.8 35.2 10.56 49.6 54.72-30.4 86.08-100.16 106.88-170.56 24-81.28 33.92-163.84 49.28-187.84 15.04-23.36 38.72-38.08 60.16-53.12 24.32-16.96 46.08-34.88 49.92-67.52-25.6-2.24-31.68-8.32-35.52-21.44-12.8 7.36-24.64 8.96-38.08 9.28-11.52 0.32-24.32-0.32-40 1.28-128.96 13.12-145.28 155.2-227.84 235.84-6.08 5.76-12.48 11.2-19.52 16.32-28.8 21.44-64.32 36.8-96.96 49.28-52.8 20.16-103.04 21.76-152.64 39.04-36.48 12.8-73.28 31.36-103.36 51.84-6.72 5.44-13.76 10.56-20.16 16-17.6 14.4-29.12 30.4-40.32 46.72-11.52 16.96-22.72 34.24-39.36 50.88-27.52 26.88-129.6 8-165.76 32.64-4.16 2.88-7.36 6.08-9.28 10.24 19.52 8.96 32.64 3.52 55.36 6.08 2.88 21.12-46.72 33.92-39.36 43.84zM828.48 654.4c1.6 24.64 15.68 73.6 28.48 85.44-24.64 6.08-67.2-3.84-78.08-21.44 5.44-25.28 34.56-48.32 49.6-64z" fill="#FFFFFF" ></path><path d="M864.64 263.68c18.24 15.68 56.64 3.2 49.6-28.48-28.48-2.24-44.8 7.36-49.6 28.48zM991.68 226.88c-4.8 10.24-14.08 23.36-14.08 49.28 0 4.48-3.52 7.36-3.52 0.64 0.32-25.28 7.04-36.16 14.08-50.56 3.52-6.08 5.44-3.52 3.52 0.64z" fill="#002B64" ></path><path d="M986.88 223.04c-5.76 9.6-19.52 27.52-21.76 53.12-0.32 4.48-4.16 7.04-3.52 0.32 2.56-25.28 13.44-40.96 21.76-54.72 3.84-5.44 5.76-2.88 3.52 1.28zM982.4 217.92c-6.4 9.28-27.84 30.4-32.32 56-0.64 4.48-4.48 6.72-3.52 0 4.48-24.96 22.72-44.48 32.32-57.28 4.48-5.12 6.08-2.56 3.52 1.28z" fill="#002B64" ></path><path d="M978.56 212.48c-7.68 8.32-32.96 35.2-40.96 59.84-1.28 4.16-5.44 6.08-3.52-0.32 8-24 30.08-49.92 41.28-61.44 4.8-4.8 6.08-1.6 3.2 1.92z" fill="#002B64" ></path></svg>