<svg id="icon-op-mysql" xmlns="http://www.w3.org/2000/svg" viewBox="0 0 1024 1024"><path d="M856.368 169.2H577.76a24 24 0 0 0 0 48h278.608a45.968 45.968 0 0 1 45.92 45.92v557.216a45.968 45.968 0 0 1-45.92 45.92h-253.6a1524.576 1524.576 0 0 1-68.304-57.328 24 24 0 1 0-32.096 35.696c8.304 7.456 16.704 14.752 24.784 21.632H299.136a45.968 45.968 0 0 1-45.92-45.92v-41.76a24 24 0 0 0-48 0v41.76a94.032 94.032 0 0 0 93.92 93.92h557.232a94.032 94.032 0 0 0 93.92-93.92V263.088a94.048 94.048 0 0 0-93.92-93.888z" fill="#666666" ></path><path d="M298.496 796.88a24 24 0 0 0 37.312-15.456 895.808 895.808 0 0 1 26.656-102.72 1102.672 1102.672 0 0 0 41.2 57.088 24 24 0 1 0 38-29.328 1078.192 1078.192 0 0 1-65.6-95.36 24 24 0 0 0-43.008 4.352c-1.024 2.816-20.272 56-34.48 112-27.088-39.632-57.504-121.008-6.544-259.984a24 24 0 0 0-6.016-25.696 341.856 341.856 0 0 1-78.8-120.336 233.216 233.216 0 0 0-42.288-76.064c-41.056-49.312-46.944-78.16-40.896-85.504 10.176-12.368 70.528 15.184 119.568 54.544a24 24 0 0 0 26 2.64c1.008-0.496 102.656-50.608 231.184 62.864a664.256 664.256 0 0 1 144.336 194.672 24.112 24.112 0 0 0 25.6 13.76c0.88-0.144 77.744-10.8 151.664 77.584-110.144 19.2-115.2 36.976-118.4 48a24 24 0 0 0 5.744 23.168c32.288 33.792 119.328 136.144 133.984 203.2a24 24 0 0 0 23.424 18.88 24.576 24.576 0 0 0 5.136-0.544 24 24 0 0 0 18.32-28.576c-15.472-70.752-87.888-160.368-124.72-202.416a921.184 921.184 0 0 1 102.72-20.448 24 24 0 0 0 16.608-36.96c-75.616-114.816-165.488-129.6-203.536-130.24a699.504 699.504 0 0 0-149.056-196.048C408.176 134.08 301.008 155.2 262.656 168.288 144.784 77.92 98.624 115.328 87.072 129.344c-26.8 32.48-12.992 81.856 41.04 146.752a185.744 185.744 0 0 1 33.6 60.496 377.6 377.6 0 0 0 80.144 128.768c-79.152 233.728 50.944 327.552 56.64 331.52z" fill="#1771B9" ></path><path d="M290.048 282.288a24.528 24.528 0 0 0-6.896 16.96 24 24 0 0 0 6.896 16.96 24.128 24.128 0 0 0 34.064 0 24.096 24.096 0 0 0 6.88-16.96 24.512 24.512 0 0 0-6.88-16.96 24.944 24.944 0 0 0-34.064 0z" fill="#1771B9" ></path><path d="M477.408 757.232a15.904 15.904 0 0 0-2.896-3.52 24.608 24.608 0 0 0-33.92 0 16.528 16.528 0 0 0-3.04 3.52 36.896 36.896 0 0 0-2.24 4.16c-0.48 1.44-0.944 3.04-1.264 4.48a24.464 24.464 0 0 0-0.496 4.8 24.992 24.992 0 0 0 1.76 9.12 26.336 26.336 0 0 0 5.28 7.84 22.4 22.4 0 0 0 7.68 5.12 23.008 23.008 0 0 0 9.28 1.92 24.256 24.256 0 0 0 16.96-7.04 22.704 22.704 0 0 0 5.12-7.84 22.208 22.208 0 0 0 1.92-9.12 21.92 21.92 0 0 0-1.92-9.28 20.8 20.8 0 0 0-2.224-4.16z" fill="#666666" ></path></svg>