<svg t="1736478374527" class="icon" viewBox="0 0 1024 1024" version="1.1" xmlns="http://www.w3.org/2000/svg" p-id="4881" width="48" height="48"><path d="M491.353792 556.019275a80.247527 80.247527 0 0 0-15.582045-20.256658 56.61476 56.61476 0 0 0-19.996956-11.167131 70.6386 70.6386 0 0 0-21.814862-3.37611 60.250571 60.250571 0 0 0-27.787979 7.01192 64.405782 64.405782 0 0 0-19.996956 16.361146 88.817652 88.817652 0 0 0-12.985037 22.853665 82.584834 82.584834 0 0 0-5.713416 25.970074 143.095105 143.095105 0 0 0 0 21.814861 102.32209 102.32209 0 0 0 7.27162 30.125286 85.441542 85.441542 0 0 0 14.543241 23.113365 53.498352 53.498352 0 0 0 20.516359 14.02384 74.01471 74.01471 0 0 0 29.086482 4.934314 60.250571 60.250571 0 0 0 17.140249-1.558205l16.101445-4.674613-20.256657-19.477555 33.761095-34.799899 12.205935 12.985037a106.737002 106.737002 0 0 0 3.376109-11.686533 127.25336 127.25336 0 0 0 1.558205-20.776059 90.895257 90.895257 0 0 0-11.686533-51.940147z"  p-id="4882"></path><path d="M743.523206 0H213.474005a85.441542 85.441542 0 0 0-85.441542 85.441542v298.655846H42.590921A42.590921 42.590921 0 0 0 0 426.688308v363.58103A42.850621 42.850621 0 0 0 42.590921 831.042354h85.441542v106.737002a85.181841 85.181841 0 0 0 85.441542 85.181841h725.344154a85.181841 85.181841 0 0 0 85.181841-85.181841V282.5544zM158.417449 732.615775a165.169668 165.169668 0 0 1-28.567081-3.895511 82.065432 82.065432 0 0 1-25.970074-10.64773 75.572914 75.572914 0 0 1-22.074562-23.113366 72.716206 72.716206 0 0 1-11.946234-31.94319l-2.856708-17.140249h51.940147a135.304083 135.304083 0 0 0 2.077606 14.283541A36.358103 36.358103 0 0 0 129.850368 675.221912a37.396906 37.396906 0 0 0 19.737256 11.426833 119.722039 119.722039 0 0 0 34.020796 2.597007 94.790768 94.790768 0 0 0 25.970074-3.895511 25.970074 25.970074 0 0 0 15.582044-10.388029 29.605884 29.605884 0 0 0 3.895511-16.880548 25.970074 25.970074 0 0 0-3.116409-11.686533 25.970074 25.970074 0 0 0-8.310424-8.050723 69.340096 69.340096 0 0 0-14.802942-5.973117q-9.349226-2.856708-25.970073-6.232818l-34.540198-6.752219c-10.907431-2.337307-21.03576-4.674613-30.384986-7.27162a61.808775 61.808775 0 0 1-22.334263-10.647731 43.110322 43.110322 0 0 1-13.244738-15.322343 57.134162 57.134162 0 0 1-6.232817-17.140249 86.480345 86.480345 0 0 1 0-18.698453 71.158002 71.158002 0 0 1 12.985036-41.552117 73.495308 73.495308 0 0 1 25.970074-22.074563 119.202638 119.202638 0 0 1 29.346183-10.128328 185.945727 185.945727 0 0 1 36.358103-3.116409 171.142785 171.142785 0 0 1 38.95511 4.414912 86.220644 86.220644 0 0 1 28.30738 11.946234 88.817652 88.817652 0 0 1 20.776059 19.996957 46.226731 46.226731 0 0 1 10.38803 21.555161l2.337306 16.880548H222.30383a62.068476 62.068476 0 0 0-5.713417-14.02384 25.970074 25.970074 0 0 0-8.829825-8.570124 60.769972 60.769972 0 0 0-16.620847-4.934314 193.996449 193.996449 0 0 0-20.776059-2.077606 103.880294 103.880294 0 0 0-29.086482 3.116409 35.059599 35.059599 0 0 0-19.217854 9.608927 22.334263 22.334263 0 0 0-6.232818 13.244737 19.477555 19.477555 0 0 0 1.817905 11.946234 18.958154 18.958154 0 0 0 8.050723 9.349227 65.704286 65.704286 0 0 0 17.399949 5.973117c8.050723 2.077606 15.062643 3.63581 21.295461 4.674613l28.826781 4.674613a207.760588 207.760588 0 0 1 32.202891 7.791022 99.984783 99.984783 0 0 1 28.307381 14.283541 64.405782 64.405782 0 0 1 19.477555 22.593964 69.080396 69.080396 0 0 1 5.713416 34.020796 85.960943 85.960943 0 0 1-9.349227 36.098402 58.952067 58.952067 0 0 1-19.996956 22.593964 74.01471 74.01471 0 0 1-25.970074 10.64773 210.357596 210.357596 0 0 1-32.462592 3.635811c-11.426832 0.259701-22.074563 0.259701-32.722292-0.259701zM960.892721 938.818159a21.29546 21.29546 0 0 1-21.29546 21.29546H213.474005a22.593964 22.593964 0 0 1-15.322344-6.232818 21.555161 21.555161 0 0 1-6.232817-15.062642V831.042354H831.042354a42.590921 42.590921 0 0 0 42.59092-42.590921v-363.58103A42.33122 42.33122 0 0 0 831.042354 384.097388H191.918844V85.441542a21.555161 21.555161 0 0 1 6.232817-15.062643 21.555161 21.555161 0 0 1 15.322344-6.492518H716.77403l8.570124 8.829825v128.032463a97.907177 97.907177 0 0 0 98.166878 97.907177h126.474258l10.128329 10.128328z m-400.198833-236.32767l-33.761096 34.799899-19.737256-20.516358c-6.752219 3.116409-15.062643 6.492518-24.671569 10.388029a132.966777 132.966777 0 0 1-40.773016 6.232818 121.280243 121.280243 0 0 1-55.316257-10.128329 116.086229 116.086229 0 0 1-38.435708-28.826781 113.748922 113.748922 0 0 1-22.334264-41.292417 155.820441 155.820441 0 0 1-7.531321-47.784936 181.790515 181.790515 0 0 1 5.453715-45.707329 122.578747 122.578747 0 0 1 21.555161-43.629724 112.450418 112.450418 0 0 1 37.656607-30.644686 110.632513 110.632513 0 0 1 51.940147-12.205935 115.826528 115.826528 0 0 1 39.214811 5.973117 131.408572 131.408572 0 0 1 36.098402 19.217854 93.232564 93.232564 0 0 1 28.04768 33.501395 170.363682 170.363682 0 0 1 15.062643 43.629724 162.832361 162.832361 0 0 1-8.829825 88.557951l-5.713417 14.28354z m238.405275-21.555161v51.940148H597.311692v-259.700736h49.343139v207.760588z"  p-id="4883"></path></svg>