<svg xmlns="http://www.w3.org/2000/svg" id="icon-sqlite" viewBox="0 0 1024 1024"><path d="M757.589333 85.248c-93.44 79.872-177.92 267.861333-194.218666 317.738667-16.042667 49.066667-18.56 73.173333-18.730667 82.645333v2.901333a11.946667 11.946667 0 0 0 0.256 2.133334c12.544 0 28.202667 51.925333 24.576 51.925333-2.389333 0-11.776-11.776-28.16-35.328l-7.765333 50.602667 20.010666 30.08c5.632 8.405333-5.632 36.906667-8.661333 21.418666-2.048-10.325333-10.666667-23.893333-25.898667-40.704-4.992 35.626667-7.296 53.504-6.997333 53.632 19.626667 7.637333 36.437333 33.450667 32.853333 131.84-0.981333 28.245333 1.877333 75.776 8.704 142.506667l-0.128-0.682667L170.666667 896a85.333333 85.333333 0 0 1-85.333334-85.333333V170.666667a85.333333 85.333333 0 0 1 85.333334-85.333334z" fill="#0082CE" ></path><path d="M544.853333 754.133333c3.584-98.389333-13.226667-124.202667-32.853333-131.84-0.298667-0.128 2.005333-18.005333 6.997333-53.632 15.232 16.810667 23.893333 30.378667 25.898667 40.704 3.029333 15.488 14.293333-13.013333 8.661333-21.418666l-20.053333-30.08 7.808-50.602667c16.384 23.552 25.770667 35.328 28.16 35.328 3.626667 0-12.032-51.925333-24.576-51.925333-0.085333 0.085333-3.584-20.181333 18.474667-87.68 22.016-67.456 168.789333-387.498667 293.802666-351.146667 125.013333 36.394667 46.08 267.178667 29.866667 312.661333-16.128 45.482667-65.578667 117.248-84.992 133.888-12.928 11.093333-47.786667 30.933333-104.448 59.477334l87.552-27.093334c-40.362667 73.301333-69.546667 114.090667-87.552 122.368-27.050667 12.458667-76.970667 61.824-108.885333 100.992-9.898667-67.968 32.256-179.328 88.704-292.864 53.034667-106.752 118.826667-215.082667 163.242666-299.221333-49.92 70.826667-133.12 196.864-178.218666 288.896-64.512 131.712-83.584 229.888-92.970667 303.189333-10.624 83.029333-7.168 160.768 10.282667 233.301334h-10.24c-18.773333-89.941333-27.008-167.722667-24.618667-233.301334z" fill="#024A64" ></path></svg>