<svg  xmlns="http://www.w3.org/2000/svg" id="icon-MSSQLNATIVE" viewBox="0 0 1024 1024"><path d="M634.5933 477.31597L429.833187 544.195484l-178.136307 78.629829-49.830038 13.158305a1088.555295 1088.555295 0 0 1-40.396507 36.671733 1501.889894 1501.889894 0 0 1-41.753296 34.982146c-12.607908 9.907128-31.154974 28.479793-40.575706 40.242908C65.035836 765.505877 53.899917 784.219341 49.087151 798.632037c-8.511938 25.996611-4.300769 52.31322 12.070313 76.620243 21.055847 30.950175 63.001143 62.527546 111.896787 84.03139 24.921419 10.99512 66.866714 25.075018 98.431285 32.959761 52.479619 13.350303 154.008482 27.711799 209.867276 29.874983 11.302318 0.473597 26.470208 0.473597 27.084604 0 1.241591-0.742395 9.907128-17.331074 19.967855-37.913325 34.36775-70.117891 59.135571-135.883813 72.588273-192.101005 8.051142-34.047753 14.387096-79.359424 18.547065-133.106233 1.087992-15.014291 1.535989-65.279526 0.614396-82.329003-1.38239-27.852598-3.865572-50.431634-7.731144-72.575473-0.627195-3.263976-0.767994-6.195155-0.460797-6.348753 0.614396-0.473597 2.470382-1.087992 27.698999-8.35834l-5.107163-12.070312h0.0256z m-46.719661 27.391801c1.843187 0 6.783951 47.526055 8.025542 77.554637 0.319998 6.348754 0.166399 10.521524-0.140799 10.521523-1.241591 0-26.16301-14.694293-43.954881-25.843012-15.487888-9.753529-44.889274-29.247788-49.53564-32.972561-1.535989-1.075192-1.38239-1.228791 11.302318-5.567959 21.503844-7.270347 72.575473-23.679828 74.29066-23.679828z m-104.332042 34.38055c1.39519 0 4.940764 2.009585 13.465502 7.270347 31.884568 19.967855 75.212254 44.10848 93.784919 52.159622 5.721558 2.470382 6.335954 1.535989-6.809551 10.521523-28.185395 19.199861-63.30834 38.066924-106.328828 57.113186a305.917779 305.917779 0 0 1-14.092697 6.015956c-0.319998 0 0.614396-3.852772 1.855986-8.499138 10.367925-38.56612 16.255882-77.541837 16.56308-108.79921 0.153599-15.487888 0.153599-15.487888 1.535989-15.935885-0.307198 0.153599-0.140799 0.153599 0 0.153599h0.0256z m-21.503844 8.191941c0.908793 0.934393 0.294398 35.609341-0.947193 45.055673a393.87874 393.87874 0 0 1-14.233497 67.314711c-1.702388 5.721558-3.251176 10.521524-3.558374 10.828721-0.614396 0.742395-21.823842-19.967855-28.799791-28.018996-12.057512-13.926299-21.503844-27.852598-28.466993-41.471699-3.558374-6.963149-9.126334-20.582251-8.665537-21.055847 2.470382-1.689588 84.04419-33.279758 84.658585-32.639763z m-101.260065 39.782111a0.575996 0.575996 0 0 1 0.473597 0.153599c0.959993 1.766387 1.740787 3.635174 2.303983 5.567959 4.953564 13.465502 16.102283 33.279758 25.702213 45.990066 10.521524 13.926299 24.307023 28.786991 35.750141 38.56612 3.711973 3.097578 7.116748 6.041556 7.577545 6.502353 0.934393 0.934393 1.241591 0.742395-23.987026 10.367925-29.247788 11.135919-61.132356 22.271838-97.663291 34.060553-8.729537 2.81598-17.446273 5.644759-26.15021 8.511938-1.39519 0.473597-0.921593-0.307198 3.097577-6.681552 18.111868-28.313394 45.657268-83.877791 61.132356-123.186305 2.636781-6.809551 5.260762-13.619101 5.721559-15.16789 0.627195-2.175984 1.40799-2.969578 3.404775-4.031971a14.975891 14.975891 0 0 1 2.636781-0.614395v-0.0384z m-30.950175 12.838307c0.460797 0.319998-7.423946 16.870277-15.16789 32.038167-15.014291 29.260588-31.423772 58.034779-53.401212 93.016925-3.711973 6.041556-7.270347 11.609516-7.743944 12.223911-0.742395 1.087992-1.075192 0.742395-3.558374-4.019171-5.247962-10.380725-9.59993-23.679828-11.916714-35.903739-2.316783-12.070312-1.855987-33.126159 0.767995-46.118065 2.022385-9.59993 1.868786-9.446331 6.502353-11.775915 19.814256-10.047927 83.890591-40.038109 84.504986-39.462113z m266.967661 10.841521v6.502353c0 34.508549-3.711973 81.868205-9.139133 116.389555-0.921593 6.015956-1.689588 10.98232-1.843187 11.123119 0 0-4.454368-1.241591-9.753529-2.79038a399.485099 399.485099 0 0 1-71.205883-30.489379c-15.014291-8.191941-36.825333-21.670243-36.210937-22.284638 0.153599-0.153599 6.681551-3.558374 14.233496-7.590345 30.33578-15.782285 59.442768-32.806162 84.658586-49.689239 9.446331-6.348754 23.679828-16.56308 26.777405-19.340659l2.483182-1.855987v0.0256zM213.002761 656.553068c0.614396 0 0.460797 1.241591-0.460796 6.809551-0.614396 4.019171-1.40799 11.443117-1.702388 16.55028-1.241591 22.604636 2.483182 39.308515 13.619101 62.220348 3.097578 6.348754 5.580759 11.609516 5.414361 11.763114-1.087992 0.934393-103.538448 30.962975-135.730215 39.782112-9.59993 2.623981-17.95827 4.953564-18.559865 5.094363-1.075192 0.319998-1.228791 0.166399-0.729595-2.470383 3.558374-22.745435 20.889448-52.466819 45.030073-77.541836 16.102283-16.716679 28.92779-26.457408 50.930831-39.001317 15.782285-8.972735 40.050909-22.438237 41.945295-23.052633 0-0.153599 0.153599-0.153599 0.307198-0.153599h-0.064z m241.444647 43.174087c0.153599-0.153599 3.865572 1.855987 8.358339 4.492767 33.11336 19.199861 79.231425 36.991731 118.539939 46.118065l3.571174 0.742395-4.953564 2.79038c-20.582251 11.455917-88.229759 39.615712-157.400457 65.471524-10.060727 3.711973-19.967855 7.411146-21.823841 8.191941-1.868786 0.793594-3.558374 1.241591-3.558374 1.087992 0-0.153599 2.77758-5.56796 6.348754-12.223911 19.32786-36.223737 38.834918-80.332217 48.742046-110.975195 1.241591-2.956779 2.022385-5.56796 2.175984-5.721558v0.0256z m-24.614221 8.063941c0.153599 0.140799-1.087992 3.391975-2.623981 7.103949-13.478302 32.639763-31.116574 68.236304-53.70841 108.184814-5.721558 10.214326-10.521524 18.419066-10.675123 18.419066-0.166399 0-4.799965-2.79038-10.393524-6.195155-32.818962-20.108654-61.90035-44.876474-80.946613-68.8635l-2.777579-3.404775 14.092697-3.878372c50.431634-13.7727 93.324122-28.620592 135.883814-46.886059 6.041556-2.483182 11.00792-4.479967 11.135919-4.479968h0.0128z m152.907689 53.401212c0.166399 3.558374-7.731144 35.442943-14.233496 58.495576-5.414361 19.353459-10.060727 34.521349-18.547066 61.285955-3.711973 11.775914-6.95035 21.503844-7.116748 21.503843a10.585523 10.585523 0 0 1-2.009585-0.447996c-45.990066-8.371139-87.128967-19.967855-125.823087-35.455743-10.841521-4.326369-26.316609-11.289518-27.238202-12.070312-0.319998-0.307198 8.959935-4.646366 20.761449-9.753529 70.425089-30.796576 143.486958-65.765922 168.549176-80.780214 2.956779-1.868786 5.247962-2.79038 5.721559-2.790379h-0.064z m-353.021436 12.070313c0.307198 0.307198-19.34066 28.633392-46.89886 67.173912a9923.588738 9923.588738 0 0 0-24.908619 35.122945c-4.14717 5.887957-10.521524 15.16789-14.092697 20.761449l-6.502353 10.073527-6.97595-5.887957c-8.191941-6.809551-22.425437-21.363045-28.774191-29.401387-13.311903-16.56308-22.259038-34.047753-25.855812-49.983637-1.702388-7.423946-1.702388-11.135919-0.153599-11.609515 2.316783-0.627195 43.647683-10.380725 82.341802-19.35346a6781.134757 6781.134757 0 0 0 55.397998-12.991906 949.881102 949.881102 0 0 1 16.409481-3.878371l0.0128-0.0256z m19.801456 7.590345l4.966364 5.567959c22.284638 24.908619 45.030073 43.340485 72.575473 59.429969 4.953564 2.79038 8.678337 5.260762 8.371139 5.41436-1.087992 0.742395-95.653705 34.354951-139.454987 49.535641a3842.0329 3842.0329 0 0 1-45.030073 15.615886 26.611007 26.611007 0 0 1-3.097578-2.009585l-2.790379-2.009586 4.479967-6.502352c14.553494-21.043047 32.818962-44.10848 72.588273-92.082532l27.391801-32.97256z m123.519103 88.370558c0.140799-0.166399 6.95035 2.303983 15.321489 5.414361 20.121454 7.577545 36.057338 12.37751 57.407583 17.79187 26.316609 6.681551 64.383532 13.171104 86.834569 15.027091 3.404775 0.294398 5.260762 0.614396 4.633567 1.075192-1.075192 0.627195-23.820627 8.20474-40.550106 13.465503-26.623807 8.358339-107.864817 32.345365-174.104336 51.391627-12.223911 3.558374-22.745435 6.489553-23.37263 6.668751-1.535989 0.319998-6.681551-1.075192-6.681551-1.702388 0-0.307198 3.711973-5.107163 8.20474-10.380724a918.265332 918.265332 0 0 0 62.847544-84.504987c5.094363-7.743944 9.433531-14.092698 9.433531-14.246296h0.0256z m-27.238202 0.729595c0.153599 0.166399-10.841521 17.804671-30.028582 48.12765-8.20474 12.851107-17.343874 27.404601-20.582251 32.511764-3.097578 4.953564-7.743944 12.697508-10.380724 17.062276l-4.454368 7.884743-2.329583-0.614396c-5.56796-1.535989-44.722875-15.334289-55.0908-19.507058a383.562015 383.562015 0 0 1-36.070138-16.55028c-12.37751-6.681551-27.852598-16.56308-26.623807-16.883077 0.319998-0.153599 21.516644-5.887957 47.052459-12.838307 67.788308-18.431866 105.394435-29.094189 130.008656-36.838132 4.492767-1.39519 8.358339-2.470382 8.511938-2.316784l-0.0128-0.038399z m192.677001 45.196471h0.153599c0.614396 1.548789-24.473422 71.205883-33.586957 93.170524-2.009585 4.953564-2.77758 6.195155-3.865571 6.041556-2.623981-0.153599-39.001317-5.260762-61.132357-8.511938-38.52772-5.887957-103.23125-17.190275-119.474332-20.889449l-3.711973-0.742394 23.052633-5.260762c49.53564-11.135919 73.369067-17.177475 97.509691-24.614221a689.786991 689.786991 0 0 0 91.160938-35.122945c4.787165-2.175984 8.831936-3.878372 9.907129-4.031971v-0.0384zM423.497233 0.020236c-3.379175-0.460797-58.367576 19.353459-93.797719 33.740555-47.833253 19.507058-84.965783 38.079723-107.877617 54.143607-8.511938 6.041556-19.187061 16.729479-20.889448 20.902248-0.639995 1.676788-0.947193 3.455975-0.934393 5.247962l20.774249 19.660657 49.382041 15.795085 117.426347 21.107047 134.347825 23.052633 1.38239-11.609516c-0.460797 0-0.742395-0.153599-1.228791-0.153599l-17.651072-2.79038-3.558374-6.335954c-18.265467-32.191766-38.386921-72.127476-50.150036-99.07128C441.609101 52.832652 432.930764 28.704828 428.130799 11.373753c-2.623981-10.534324-2.969578-11.135919-4.646366-11.302318V0.007436z m-2.483182 7.897543h0.153599c0.153599 0.140799 0.742395 4.479967 1.395189 9.58713a322.852056 322.852056 0 0 0 15.014291 65.151527c5.721558 17.023876 5.721558 16.102283-0.921593 14.105497-15.795085-4.351968-86.527372-16.56308-137.7526-23.679828-8.191941-1.087992-15.16789-2.175984-15.167889-2.329583-0.627195-0.614396 36.991731-20.300653 53.542011-28.006196 21.209446-9.753529 79.397823-34.047753 83.736992-34.815748V7.904979zM271.818334 77.254875l6.028756 2.009585c32.818962 11.123119 115.314363 26.931004 160.818032 30.642978 5.094363 0.473597 9.433531 0.934393 9.587131 0.934393 0.153599 0.153599-4.17277 2.470382-9.753529 5.107163a862.457737 862.457737 0 0 0-62.834744 34.815747c-4.940764 3.097578-9.446331 5.580759-10.060727 5.58076-0.614396 0-3.865572-0.614396-7.270347-1.087992l-6.182355-0.921594-15.487888-15.16789a6344.542728 6344.542728 0 0 0-56.805987-54.642803l-8.038342-7.270347z m-6.182355 4.799965l21.811042 27.238202c11.916713 15.014291 23.999826 29.708584 26.623806 32.959761 2.636781 3.251176 4.787165 5.887957 4.646366 6.041556-0.627195 0.473597-31.577371-5.56796-47.986851-9.292732-16.857478-3.865572-23.833427-5.721558-34.201352-8.959935l-8.524738-2.80318v-2.163184c0.166399-10.380725 13.311903-25.855812 35.609342-41.625298l2.009585-1.40799z m185.419453 37.14533c0.639995 0 1.40799 1.39519 3.251177 5.56796 5.260762 11.609516 21.670243 42.879689 25.689413 48.895645 1.241591 2.022385 3.417575 2.175984-18.406266-1.38239-52.492419-8.511938-69.362696-11.315118-69.362696-11.609516 1.075192-0.921593 2.278383-1.702388 3.558374-2.316783a302.449004 302.449004 0 0 0 47.206057-32.639763c3.558374-2.969578 6.809551-5.734358 7.423946-6.195155 0.153599-0.307198 0.460797-0.460797 0.614396-0.307198l0.025599-0.0128z" fill="#909CA9" ></path><path d="M202.046041 106.656261s-3.404775 5.414361-0.140799 13.478303c2.009585 4.940764 7.884743 10.98232 14.540694 17.164675 0 0 68.8635 67.173912 77.221839 76.773842 38.079723 43.954881 54.642803 87.282566 56.191592 147.032533 0.921593 38.374121-6.348754 72.114676-24.486222 111.256792-32.191766 70.27149-100.133673 147.800527-204.913712 233.854302l15.321489-5.119963c9.907128-7.411146 23.37263-15.308689 54.937201-32.626963 72.895471-39.93571 154.917275-76.607444 255.524544-114.39277C591.099216 499.600608 829.279886 435.844271 964.869301 415.108422l14.079898-2.163185-2.175984-3.404775c-12.36471-19.199861-20.876648-31.103774-31.103774-43.801282-29.695784-36.838132-65.765922-66.700316-109.874402-91.468136-60.671559-33.894154-139.13499-60.364362-238.500668-80.012219-18.726264-3.711973-59.890765-10.828721-93.311323-15.948684a9237.833717 9237.833717 0 0 1-167.166786-27.225402c-18.099069-3.110377-45.183672-7.743944-63.141941-11.609516-9.279933-2.022385-27.071803-6.195155-41.010903-11.00792-11.123119-4.313569-27.238202-8.652737-30.642977-21.811042l0.0256 0.0128z m39.89731 38.732519c0.153599-0.153599 2.623981 0.742395 5.887957 1.855987 5.887957 2.009585 13.452702 4.339168 22.438237 6.80955 6.783951 1.868786 13.593501 3.673573 20.428652 5.414361 9.292733 2.329583 17.062276 4.454368 17.177475 4.454368 1.087992 1.087992 16.716679 51.071629 21.977441 70.271489 2.009585 7.270347 3.558374 13.465502 3.404775 13.465503-0.153599 0.153599-1.855987-2.483182-3.865572-6.041557-18.111868-31.897368-46.732461-64.229934-79.87142-90.239344a66.841115 66.841115 0 0 1-7.577545-5.990357z m76.159447 21.043047c2.80318 0.268798 5.593559 0.742395 8.345539 1.40799 26.316609 5.875157 73.509866 14.822292 103.692047 19.967855 5.119963 0.729595 9.139134 1.689588 9.139134 1.996786 0 0.307198-1.855987 1.40799-4.18557 2.636781-5.107163 2.623981-25.689413 14.835092-32.498964 19.494258-17.177475 11.455917-32.639763 23.833427-43.801282 34.982146-4.479967 4.479967-8.358339 8.191941-8.358339 8.19194s-0.921593-2.623981-1.702387-5.887957c-5.56796-21.503844-17.177475-53.388412-27.698999-75.826649a66.943514 66.943514 0 0 1-3.097578-7.116748c0 0.307198 0 0.153599 0.153599 0.153598z m134.015027 25.535815c0.934393 0.319998 2.483182 5.580759 5.567959 17.177475 5.798358 23.167832 8.30714 47.026859 7.423946 70.898685-0.307198 6.489553-0.627195 12.531109-0.934393 13.311904l-0.460796 1.535989-7.999942-2.636781a2466.964486 2466.964486 0 0 0-66.546717-19.660657c-13.158304-3.558374-23.833427-6.809551-23.833427-7.103949 0-0.934393 19.199861-20.134254 27.391801-27.404601 15.628687-13.7727 58.034779-46.591662 59.429969-46.118065h-0.0384z m10.687922 1.561589c0.460797-0.473597 64.063535 10.521524 93.004125 16.089483 21.503844 4.17277 52.786817 10.675122 54.642803 11.455917 0.921593 0.307198-2.329583 2.163184-12.697508 6.80955-40.857303 18.419066-71.205883 34.982146-101.375264 55.0908-7.884743 5.260762-14.540694 9.59993-14.707093 9.59993-0.153599 0-0.294398-4.479967-0.294398-9.907128 0-29.401386-5.887957-59.122771-16.716678-84.184988-1.087992-2.521582-2.022385-4.838365-1.855987-4.991964v0.0384z m164.504406 32.498964c0.473597 0.460797-1.535989 13.004706-3.404776 20.428651-5.56796 23.052633-20.582251 57.266784-38.988517 89.458551-3.251176 5.721558-6.195155 10.380725-6.515152 10.508723-0.307198 0.127999-4.441568-2.163184-9.279933-4.940764-17.94547-10.521524-38.374121-20.441452-60.671559-29.721384-6.182355-2.623981-11.609516-4.799965-11.763115-5.107163-1.075192-0.921593 48.767646-33.894154 75.071455-49.689239 20.889448-12.697508 54.937201-31.577371 55.551597-30.950175z m11.775914 1.855986c1.38239 0 29.554985 7.731144 44.249279 12.070313 36.351736 10.828721 78.169032 26.15021 105.407234 38.52772l11.289518 5.119963-7.884742 1.855986c-66.559517 15.283089-123.519103 32.921361-178.430705 55.205999a107.736818 107.736818 0 0 1-8.831936 3.417575c-0.307198 0 1.241591-3.558374 3.251177-7.897542 16.56308-35.135745 27.238202-71.807479 29.862183-103.103252 0.166399-2.969578 0.627195-5.260762 1.087992-5.260761v0.063999z m-280.445963 64.370733c0.460797-0.460797 21.97744 4.646366 33.586956 7.884742 17.638272 4.966364 55.0908 17.497473 55.0908 18.431867 0 0.153599-4.17277 3.711973-9.126334 8.051141-20.300653 16.806278-39.782111 34.610949-63.154741 57.215585-6.963149 6.681551-12.838307 12.083112-13.145505 12.083112-0.307198 0-0.460797-0.934393-0.307198-2.175984 3.558374-25.983811 2.79038-59.417169-2.175984-93.311323-0.460797-4.339168-0.921593-8.063941-0.767994-8.19194z m452.079917 0.460796c0.307198 0.319998-9.907128 16.409481-16.409481 25.548615-9.267133 13.311903-22.911834 30.911776-53.70841 69.618694a10456.116071 10456.116071 0 0 0-40.550106 51.212428c-6.195155 7.743944-11.289518 14.246297-11.443117 14.246297a53.145214 53.145214 0 0 1-4.339168-6.195155 319.780078 319.780078 0 0 0-62.681145-69.183498 355.991015 355.991015 0 0 0-11.455917-9.279932 17.254275 17.254275 0 0 1-3.084777-2.636781c0-0.460797 26.303809-11.763115 46.271664-19.801456a1597.517999 1597.517999 0 0 1 118.39914-42.278093c18.726264-5.887957 38.694119-11.609516 39.001317-11.302318v0.051199z m11.903913 3.097578c0.627195-0.153599 4.351968 1.702388 8.831936 4.326368 37.606127 21.503844 74.444259 49.228443 103.551248 77.695436 8.191941 8.063941 28.466993 29.106989 28.172596 29.260588 0 0-7.116748 0.614396-15.475088 1.241591-65.151527 4.953564-148.568521 18.713464-228.734339 38.066923-5.427161 1.228791-10.214326 2.329583-10.534324 2.329583-0.307198 0 5.721558-6.041556 13.311904-13.311903 47.052458-45.350071 68.569102-73.983463 93.951318-125.055092 3.545574-7.590345 6.655952-14.105498 6.963149-14.553494h-0.0256z m-344.650297 35.263744c2.175984 0.460797 22.246238 9.894328 37.452528 17.484673 13.926299 6.963149 34.866947 18.111868 35.903739 19.033462 0.153599 0.153599-7.270347 4.019171-16.396681 8.511938a1083.268934 1083.268934 0 0 0-80.025018 44.10848c-7.423946 4.492767-13.619101 8.21754-13.7727 8.21754-0.627195 0-0.460797-0.639995 3.711973-8.21754 13.926299-25.369416 25.062218-55.705195 31.410971-85.298581 0.627195-2.316783 1.241591-3.865572 1.702388-3.865572v0.0256z m-20.121454 3.711973c0.473597 0.460797-4.799965 19.494258-8.051141 29.874983a381.053233 381.053233 0 0 1-27.391801 62.834744c-2.470382 4.326369-6.182355 10.675122-8.191941 14.233496l-3.878372 6.182355-8.665537-8.345539c-10.060727-9.753529-18.265467-15.795085-28.786991-21.209446-4.18557-2.175984-7.423946-4.019171-7.423946-4.326369 0-1.241591 26.470208-25.215817 46.745261-42.559691 14.540694-12.543909 45.183672-37.14533 45.657268-36.684533z m123.045507 50.610832l7.590344 4.953564a589.640518 589.640518 0 0 1 53.401213 39.462114c8.831936 7.270347 25.843012 22.604636 29.247787 26.303809l1.855987 2.022385-12.556709 3.558374c-70.885885 19.647857-125.682287 37.13253-189.592223 60.67156-7.116748 2.623981-13.158304 4.787165-13.631901 4.787165-0.921593 0-1.689588 0.742395 14.246296-13.926299 40.857303-37.606127 77.06824-79.090626 103.999245-119.487132l5.427161-8.34554h0.0128z m-32.345366 8.051142c0.307198 0.294398-20.889448 30.169381-33.586956 47.039658a2088.151236 2088.151236 0 0 1-60.671559 75.83945c-7.743944 9.126334-14.399895 16.716679-14.719893 16.870277-0.460797 0.153599-0.614396-2.175984-0.614396-5.721558 0-18.739064-4.787165-38.694119-13.145504-55.717996-3.558374-7.116748-4.18557-8.831936-3.404775-9.59993 2.969578-2.636781 47.974052-28.326194 76.453844-43.647683 19.199861-10.214326 49.202843-25.382216 49.689239-25.062218zM352.905745 441.42503c0.460797 0 4.019171 1.855987 8.051142 4.019171 9.407932 5.132763 18.329467 11.135919 26.623806 17.95827 0.294398 0.307198-3.711973 3.558374-8.985534 7.423946-14.719893 10.495924-36.991731 27.391801-49.996437 37.759726-13.619101 10.828721-14.079898 11.123119-12.531109 8.806336 10.214326-15.615887 15.321489-24.473422 20.774249-35.750141 4.979164-10.495924 9.318332-21.311845 12.991906-32.345365 1.241591-4.454368 2.79038-7.884743 3.097577-7.884742h-0.0256z m52.159621 40.857304c0.742395-0.153599 1.689588 1.241591 5.875158 7.423946 8.831936 13.158304 15.628687 30.796576 17.331074 45.030073l0.307198 3.097577-21.196646 8.204741c-37.926125 14.707093-72.895471 29.247788-96.575299 40.063709-6.681551 3.084778-18.265467 8.652737-25.855812 12.37751-7.577545 3.865572-13.7599 6.809551-13.7599 6.668752 0-0.127999 4.787165-3.711973 10.675122-8.063942 46.271664-33.574156 86.360973-70.399489 116.389555-107.237621 3.238376-3.865572 6.182355-7.423946 6.489553-7.590345l0.319997 0.0256z m-23.987025 5.887957c0.614396 0.614396-17.062276 20.582251-29.106989 32.806162-29.862183 30.489379-59.442768 54.322806-96.101702 77.529037-4.646366 2.969578-8.831936 5.580759-9.292733 5.887957-1.087992 0.627195 0.307198-0.921593 16.409481-18.419066a422.409733 422.409733 0 0 0 26.777406-31.71817c5.875157-7.590345 6.963149-8.678337 15.462287-14.719893 22.758235-16.396681 75.225054-51.993222 75.85225-51.366027z" fill="#A91D22" ></path></svg>