<svg t="1756305474315" class="icon" viewBox="0 0 1024 1024" version="1.1" xmlns="http://www.w3.org/2000/svg" p-id="24277" width="48" height="48"><path d="M960 0H0v1024h1024V0.146286h-64V0z m-640 960.146286h-256v-192h256v192z m0-256.146286h-256V512.146286h256v191.853714z m320 256.146286h-256v-192h256v192z m0-256.146286h-256V512.146286h256v191.853714z m320 256.146286h-256v-192h256v192z m0-256.146286h-256V512.146286h256v191.853714z m0-256h-256V256.146286H640v192h-256V256.146286h-64v192h-256V256.146286h896v191.853714z" p-id="24278"></path></svg>