<svg xmlns="http://www.w3.org/2000/svg" id="icon-vastbase" viewBox="0 0 1024 1024"><path d="M22.528 553.984c-1.024 0-1.024-1.024-1.024-1.024 1.024 0 1.024 1.024 1.024 1.024z" fill="#FEA000" ></path><path d="M391.168 413.696v4.096c-1.024 10.24-6.144 20.48-13.312 27.648-6.144 6.144-14.336 11.264-23.552 12.288-1.024 0-2.048 0-4.096 1.024h-3.072H67.584c-25.6 0-46.08-20.48-46.08-46.08 0-12.288 5.12-23.552 13.312-32.768 8.192-8.192 19.456-13.312 32.768-13.312H266.24L166.912 194.56c-12.288-21.504-5.12-50.176 16.384-62.464 7.168-4.096 15.36-6.144 22.528-6.144 15.36 0 30.72 8.192 39.936 22.528l135.168 233.472 4.096 8.192c4.096 8.192 6.144 15.36 6.144 23.552zM529.408 360.448c-1.024 0-2.048 1.024-2.048 1.024s-1.024 1.024-2.048 1.024c-10.24 4.096-20.48 5.12-30.72 2.048-8.192-2.048-16.384-7.168-22.528-14.336-1.024 0-1.024-1.024-2.048-2.048s-1.024-2.048-2.048-3.072l-1.024-1.024-138.24-240.64C315.392 81.92 323.584 53.248 345.088 40.96c11.264-6.144 23.552-7.168 34.816-4.096 11.264 3.072 21.504 10.24 27.648 21.504l99.328 172.032 99.328-172.032c12.288-21.504 40.96-29.696 62.464-16.384 7.168 4.096 13.312 10.24 16.384 16.384 8.192 13.312 8.192 30.72 0 46.08L549.888 336.896l-4.096 8.192c-4.096 6.144-9.216 12.288-16.384 15.36zM645.12 453.632c-1.024 0-1.024-1.024-2.048-1.024s-1.024-1.024-1.024-1.024c-9.216-6.144-14.336-15.36-17.408-25.6-2.048-8.192-2.048-18.432 1.024-26.624 0-1.024 1.024-2.048 1.024-4.096 0-1.024 1.024-2.048 2.048-3.072 0 0 0-1.024 1.024-1.024l139.264-240.64c12.288-21.504 40.96-29.696 62.464-16.384 11.264 6.144 18.432 16.384 21.504 27.648 3.072 11.264 2.048 23.552-5.12 34.816L747.52 367.616h198.656c25.6 0 46.08 20.48 46.08 46.08 0 8.192-2.048 16.384-6.144 22.528-8.192 13.312-22.528 22.528-39.936 22.528H667.648c-8.192 0-16.384-2.048-22.528-5.12zM391.168 596.992v-2.048-2.048c-1.024-10.24-6.144-20.48-13.312-27.648-6.144-6.144-14.336-11.264-23.552-12.288-1.024 0-2.048 0-4.096-1.024h-3.072H67.584c-25.6 0-46.08 20.48-46.08 46.08 0 12.288 5.12 23.552 13.312 32.768 8.192 8.192 19.456 13.312 32.768 13.312H266.24l-99.328 172.032c-12.288 21.504-5.12 50.176 16.384 62.464 7.168 4.096 15.36 6.144 22.528 6.144 15.36 0 30.72-8.192 39.936-22.528l135.168-233.472 4.096-8.192c4.096-9.216 6.144-16.384 6.144-23.552zM529.408 649.216c-1.024 0-2.048-1.024-2.048-1.024s-1.024-1.024-2.048-1.024c-10.24-4.096-20.48-5.12-30.72-2.048-8.192 2.048-16.384 7.168-22.528 14.336-1.024 1.024-2.048 2.048-2.048 3.072-1.024 1.024-1.024 2.048-2.048 3.072l-1.024 1.024-138.24 239.616c-12.288 21.504-5.12 50.176 16.384 62.464 11.264 6.144 23.552 7.168 34.816 4.096 11.264-3.072 21.504-10.24 27.648-21.504l99.328-172.032L606.208 952.32c12.288 21.504 40.96 29.696 62.464 16.384 7.168-4.096 13.312-10.24 16.384-16.384 8.192-13.312 8.192-30.72 0-46.08L549.888 672.768l-4.096-7.168c-4.096-7.168-9.216-12.288-16.384-16.384zM645.12 557.056c-1.024 0-1.024 1.024-2.048 1.024s-1.024 1.024-1.024 1.024c-9.216 6.144-14.336 15.36-17.408 25.6-2.048 8.192-2.048 18.432 1.024 26.624 0 1.024 1.024 2.048 1.024 4.096 0 1.024 1.024 2.048 2.048 3.072 0 0 0 1.024 1.024 1.024L766.976 860.16c12.288 21.504 40.96 29.696 62.464 16.384 11.264-6.144 18.432-16.384 21.504-27.648 3.072-11.264 2.048-23.552-5.12-34.816L747.52 642.048h198.656c25.6 0 46.08-20.48 46.08-46.08 0-8.192-2.048-16.384-6.144-22.528-8.192-13.312-22.528-22.528-39.936-22.528H667.648c-8.192 0-16.384 2.048-22.528 6.144z" fill="#FE9500" ></path></svg>