<svg t="1756107672203" class="icon" viewBox="0 0 1472 1024" version="1.1" xmlns="http://www.w3.org/2000/svg" p-id="5144" width="48" height="48"><path d="M1449.66628 358.737a233.848 233.848 0 0 0-166.348-35.445 268.717 268.717 0 0 0-108.127-152.273l-31.158-20.026-22.265 30.455a258.736 258.736 0 0 0-22.01 265.39 177.353 177.353 0 0 1-74.28 21.241h-24.953V309.536H830.08228V0H624.44928v154.768H287.27328v154.704H118.68528V468.08H8.44728L3.26528 504.42a493.032 493.032 0 0 0 95.97 353.3c90.149 110.11 234.232 165.964 428.284 165.964a749.848 749.848 0 0 0 585.42-255.025 804.871 804.871 0 0 0 139.86-226.874c187.718-3.391 213.246-134.359 214.27-139.99l4.863-27.447-22.01-15.61z m-766.291-49.84v-92.068h87.717v92.068h-87.717z m-337.176 154.64v-92.068h87.59v92.068h-87.59z m168.588 0v-92.068h87.589v92.068h-87.589z m168.588 0v-92.068h87.717v92.068h-87.717z m170.38-92.068h87.524v92.068h-87.525v-92.068zM683.37428 62.125h87.717v92.003h-87.717V62.125zM514.78728 216.829h87.589v92.068h-87.525v-92.068z m-168.588 0h87.59v92.068h-87.59v-92.068zM177.61228 371.47h87.525v92.068H177.61228v-92.068zM527.19928 938.4a609.348 609.348 0 0 1-235-40.564 399.493 399.493 0 0 0 151.058-66.092 44.018 44.018 0 0 0 7.87-57.582 39.54 39.54 0 0 0-54.575-11.9 375.18 375.18 0 0 1-215.998 62.508 262.639 262.639 0 0 1-19.194-21.433 392.455 392.455 0 0 1-79.591-249.523h943.9a250.035 250.035 0 0 0 155.216-62.06l4.99-4.671a682.157 682.157 0 0 1-658.42 451.636z m699.432-482.412l-25.144-1.215-15.163-21.178a186.566 186.566 0 0 1-21.626-161.358 145.619 145.619 0 0 1 42.483 100.769l-1.663 60.525 54.83-18.682a205.505 205.505 0 0 1 111.07-1.664 170.123 170.123 0 0 1-144.787 42.803zM544.41028 629.31a69.738 69.738 0 1 1-66.412 69.674 68.139 68.139 0 0 1 66.412-69.674z m0 85.413a15.74 15.74 0 1 0-14.971-15.675 15.291 15.291 0 0 0 14.97 15.675z m0 0" p-id="5145"></path></svg>