<svg xmlns="http://www.w3.org/2000/svg" viewBox="0 0 1024 1024"><path d="M916 983.5c0 22.4-16.5 40.5-36.8 40.5H139.3c-20.4 0-36.9-18.1-36.9-40.5v-943c0-22.4 16.5-40.5 36.9-40.5H724l192 214.2v769.3z" fill="#6367F0" ></path><path d="M712.6 0v186.5c0.8 25 21.3 44.6 45.8 43.8H916L712.6 0z" fill="#4F52C0" ></path><path d="M659.2 357.1v266.6c-0.8 27.6-23.3 49.7-50.8 49.7-28.1 0-50.8-22.9-50.8-51.2s22.8-51.2 50.8-51.2c9.8 0 19 2.8 26.8 7.7V386.1l-240.4 26.1v271.6c-0.4 27.9-23 50.4-50.8 50.4-28.1 0-50.8-22.9-50.8-51.2 0-28.3 22.8-51.2 50.8-51.2 9.8 0 19 2.8 26.8 7.7V386.1c0-14 11.1-25.2 24-25.2l237.6-28h1.9c12.8-1 24.9 10.2 24.9 24.2z" fill="#FFFFFF" ></path></svg>