<svg xmlns="http://www.w3.org/2000/svg" viewBox="0 0 1024 1024"><path d="M984.32 277.12L708.48 32.64a96.64 96.64 0 0 0-64-24.32h-384a97.92 97.92 0 0 0-95.36 97.28v812.8a97.92 97.92 0 0 0 97.28 97.28h656.64a97.28 97.28 0 0 0 97.28-97.28V349.44a97.28 97.28 0 0 0-32-72.32z m-308.48-188.16l229.76 204.16h-229.76z m243.2 862.72H262.4a33.28 33.28 0 0 1-33.28-33.28V105.6a33.28 33.28 0 0 1 33.28-33.28h349.44v256a32 32 0 0 0 32 32h308.48v561.28a33.28 33.28 0 0 1-33.28 30.08z" fill="#EEAC00" ></path><path d="M6.4 419.84m64 0l609.92 0q64 0 64 64l0 238.72q0 64-64 64l-609.92 0q-64 0-64-64l0-238.72q0-64 64-64Z" fill="#EEAC00" ></path><path d="M216.32 501.12a99.2 99.2 0 0 1 33.92 64h-47.36a50.56 50.56 0 0 0-19.2-34.56 60.16 60.16 0 0 0-39.04-11.52 56.96 56.96 0 0 0-46.08 21.76 99.2 99.2 0 0 0-16.64 64 97.28 97.28 0 0 0 16.64 64 53.76 53.76 0 0 0 46.08 21.76 54.4 54.4 0 0 0 59.52-53.12h46.72A115.84 115.84 0 0 1 215.68 704a110.08 110.08 0 0 1-71.68 22.4A103.68 103.68 0 0 1 64 689.92a128 128 0 0 1-31.36-87.04A128 128 0 0 1 64 517.12a104.32 104.32 0 0 1 83.84-36.48 116.48 116.48 0 0 1 68.48 20.48zM476.8 553.6h-46.08a42.88 42.88 0 0 0-16.64-25.6 64 64 0 0 0-36.48-8.32 64 64 0 0 0-32.64 6.4 21.76 21.76 0 0 0-12.16 20.48c0 7.68 6.4 14.72 18.56 20.48a344.32 344.32 0 0 0 46.72 14.08 208 208 0 0 1 58.88 21.76 54.4 54.4 0 0 1 27.52 48.64c0 48.64-34.56 73.6-103.04 73.6s-97.92-27.52-103.04-81.28h46.72a53.12 53.12 0 0 0 16.64 33.28 67.84 67.84 0 0 0 38.4 8.96c37.12 0 55.68-10.24 55.68-31.36a30.08 30.08 0 0 0-21.12-26.88 325.76 325.76 0 0 0-46.08-13.44 181.12 181.12 0 0 1-57.6-19.84 53.12 53.12 0 0 1-26.88-46.72 56.32 56.32 0 0 1 26.24-49.28 115.2 115.2 0 0 1 67.84-17.92c60.16 0 93.44 24.32 98.56 72.96zM709.76 553.6h-46.08a42.88 42.88 0 0 0-16.64-25.6 64 64 0 0 0-36.48-8.32 64 64 0 0 0-32.64 6.4 21.76 21.76 0 0 0-12.16 20.48c0 7.68 5.76 14.72 18.56 20.48a344.32 344.32 0 0 0 46.72 14.08 215.68 215.68 0 0 1 58.88 21.76 55.68 55.68 0 0 1 27.52 48.64c0 48.64-34.56 73.6-103.04 73.6S516.48 697.6 512 643.84h46.72a53.12 53.12 0 0 0 16.64 33.28 67.84 67.84 0 0 0 38.4 8.96c37.12 0 55.68-10.24 55.68-31.36a30.08 30.08 0 0 0-21.12-26.88 325.76 325.76 0 0 0-46.72-13.44 181.12 181.12 0 0 1-57.6-19.84 53.12 53.12 0 0 1-26.88-46.72 56.32 56.32 0 0 1 26.24-49.28 115.2 115.2 0 0 1 67.84-17.92c60.16 0 92.8 24.32 98.56 72.96z" fill="#FFFFFF" ></path></svg>