<svg xmlns="http://www.w3.org/2000/svg" viewBox="0 0 1024 1024"><path d="M205.799024 64.936585H664.850732l231.773658 231.773659v638.376585c0 13.79353-11.18208 24.97561-24.97561 24.97561H205.799024c-13.79353 0-24.97561-11.18208-24.975609-24.97561V89.912195c0-13.79353 11.18208-24.97561 24.975609-24.97561z m448.70681 24.97561H205.799024v845.174634H871.64878V307.055141L654.505834 89.912195z" fill="#B7B7BD" ></path><path d="M664.850732 64.936585l-10.989269 23.477074v196.807804c0 13.79353 11.18208 24.97561 24.97561 24.97561h194.310244L896.62439 296.710244 664.850732 64.936585z m13.986341 49.306849L849.815102 285.221463H678.837073V114.243434z" fill="#B7B7BD" ></path><path d="M255.250732 571.441951m9.990244 0l555.457561 0q9.990244 0 9.990243 9.990244l0 0q0 9.990244-9.990243 9.990244l-555.457561 0q-9.990244 0-9.990244-9.990244l0 0q0-9.990244 9.990244-9.990244Z" fill="#B7B7BD" ></path><path d="M255.250732 707.309268m9.990244 0l555.457561 0q9.990244 0 9.990243 9.990244l0 0q0 9.990244-9.990243 9.990244l-555.457561 0q-9.990244 0-9.990244-9.990244l0 0q0-9.990244 9.990244-9.990244Z" fill="#B7B7BD" ></path><path d="M255.250732 639.37561m9.990244 0l555.457561 0q9.990244 0 9.990243 9.990244l0 0q0 9.990244-9.990243 9.990244l-555.457561 0q-9.990244 0-9.990244-9.990244l0 0q0-9.990244 9.990244-9.990244Z" fill="#B7B7BD" ></path><path d="M255.250732 774.243902m9.990244 0l555.457561 0q9.990244 0 9.990243 9.990244l0 0q0 9.990244-9.990243 9.990244l-555.457561 0q-9.990244 0-9.990244-9.990244l0 0q0-9.990244 9.990244-9.990244Z" fill="#B7B7BD" ></path><path d="M255.250732 842.177561m9.990244 0l555.457561 0q9.990244 0 9.990243 9.990244l0 0q0 9.990244-9.990243 9.990244l-555.457561 0q-9.990244 0-9.990244-9.990244l0 0q0-9.990244 9.990244-9.990244Z" fill="#B7B7BD" ></path><path d="M67.434146 193.810732m15.984391 0l286.72 0q15.98439 0 15.98439 15.98439l0 286.72q0 15.98439-15.98439 15.98439l-286.72 0q-15.98439 0-15.984391-15.98439l0-286.72q0-15.98439 15.984391-15.98439Z" fill="#00C090" ></path><path d="M242.569116 353.23904l89.224866 84.502478c4.337764 4.107988 4.523582 10.954302 0.415595 15.291067-4.107988 4.337764-10.954302 4.523582-15.291068 0.415595l-89.224866-84.502479-84.502478 89.224867c-4.107988 4.337764-10.954302 4.523582-15.291067 0.415594-4.337764-4.107988-4.523582-10.954302-0.415595-15.291067l84.502478-89.224867-89.224866-84.502478c-4.337764-4.107988-4.523582-10.954302-0.415594-15.291067 4.107988-4.337764 10.954302-4.523582 15.291067-0.415594l89.224867 84.502478 84.502478-89.224867c4.107988-4.337764 10.954302-4.523582 15.291067-0.415594 4.337764 4.107988 4.523582 10.954302 0.415594 15.291068l-84.502478 89.224866z" fill="#FFFFFF" ></path></svg>