<svg xmlns="http://www.w3.org/2000/svg" viewBox="0 0 1024 1024"><path d="M908.611316 239.2926l2.721684 711.518222c0 16.437893-13.204209 29.642101-29.642101 29.642102h-687.831489c-16.451366 0-29.655575-13.204209-29.655575-29.642102V73.027359c0-16.437893 13.204209-29.642101 29.642102-29.642102l522.468983-1.077894L675.1124 0H195.274147A69.497254 69.497254 0 0 0 125.709525 69.59157v884.843673A69.48378 69.48378 0 0 0 195.274147 1023.999865H880.235741a69.497254 69.497254 0 0 0 69.59157-69.564622V281.586489l-41.215995-42.307363z" fill="#D6473B" fill-opacity=".4" ></path><path d="M675.125873 206.21471a75.506516 75.506516 0 0 0 75.533464 75.533463h199.343132L675.125873 0v206.21471z" fill="#EF6A63" ></path><path d="M532.34526 481.104779H109.972263A96.48504 96.48504 0 0 1 13.47375 384.606265V320.808379A96.471566 96.471566 0 0 1 109.972263 224.296392H532.34526a96.471566 96.471566 0 0 1 96.498514 96.511987v63.797886a96.48504 96.48504 0 0 1-96.498514 96.498514" fill="#FA4E4E" ></path><path d="M479.568846 274.890069h35.422312v124.335142h55.120834v40.663573h-90.543146V274.890069z m-151.269032 0h46.443783l17.89305 100.298092 17.893051-100.298092h46.457257v164.998715H428.058958v-125.776825l-22.218102 125.776825h-26.206312l-22.24505-125.776825v125.776825H328.488445V274.890069h-0.188631z m-123.082089 0h107.546933v40.663574H276.614768v124.173457h-35.422311V315.553643h-36.14989v-40.663574h0.175158z m-125.049247 0h35.422311v57.653887h38.669469V274.863122h35.610942v165.012189h-35.610942V373.221004H115.604263v66.694728h-35.435785V274.876595z" fill="#FFFFFF" ></path><path d="M442.704851 590.61887l-2.344421-2.357895a18.687998 18.687998 0 0 0-26.583575 0l-121.263142 121.29009a18.728419 18.728419 0 0 0-5.537683 13.352419 18.728419 18.728419 0 0 0 5.524209 13.379366l121.276616 121.276616c7.410525 7.410525 19.159576 7.410525 26.583575 0l2.344421-2.357894c7.410525-7.410525 7.410525-19.159576 0-26.556628l-105.727986-105.74146 105.727986-105.714513c7.410525-7.410525 7.410525-19.334734 0-26.570101M587.102306 584.111081l-3.233684-1.266526a18.714945 18.714945 0 0 0-24.063997 11.210104L470.905269 838.0361a18.701471 18.701471 0 0 0 11.19663 24.03705l3.260631 1.266526a18.701471 18.701471 0 0 0 24.037049-11.210104l88.926304-243.981441c3.422315-9.754946-1.455158-20.614734-11.210103-24.03705M778.671123 709.537591l-121.263142-121.263142a18.66105 18.66105 0 0 0-26.570102 0l-2.344421 2.344421c-7.410525 7.410525-7.410525 19.159576 0 26.556628l105.714513 105.74146-105.714513 105.714512a18.66105 18.66105 0 0 0 0 26.583575l2.344421 2.344421c7.410525 7.410525 19.159576 7.410525 26.570102 0l121.263142-121.263142c3.73221-3.745684 5.564631-8.569262 5.537683-13.379366a18.728419 18.728419 0 0 0-5.52421-13.379367" fill="#EF6A63" ></path></svg>