<svg xmlns="http://www.w3.org/2000/svg" viewBox="0 0 1024 1024"><path d="M533.987556 352V135.992889H231.992889V888.035556h560.014222V394.012444H576a42.012444 42.012444 0 0 1-42.012444-42.012444z m-133.973334 50.005333a39.992889 39.992889 0 1 1 0 79.985778 39.992889 39.992889 0 0 1 0-79.985778z m295.992889 294.001778H328.106667a7.964444 7.964444 0 0 1-6.314667-12.913778l99.811556-127.203555a7.964444 7.964444 0 0 1 12.600888 0l41.102223 52.423111 77.795555-99.214222a8.135111 8.135111 0 0 1 12.686222 0l136.533334 173.994666a7.964444 7.964444 0 0 1-6.314667 12.913778z" fill="#E6F7FF" ></path><path d="M854.584889 288.597333L639.431111 73.386667c-6.001778-5.973333-14.108444-9.386667-22.613333-9.386667H192c-17.692444 0-32 14.307556-32 32v832c0 17.692444 14.307556 32 32 32h640c17.692444 0 32-14.307556 32-32v-616.675556c0-8.533333-3.413333-16.725333-9.386667-22.727111z m-252.586667-150.784l188.188445 188.188445h-188.188445V137.813333z m190.008889 750.193778H231.992889V135.964444h301.994667v216.007112a42.012444 42.012444 0 0 0 42.012444 42.012444h216.007111v493.994667z" fill="#1890FF" ></path><path d="M553.102222 509.098667l-77.795555 99.214222-41.102223-52.423111a7.992889 7.992889 0 0 0-12.600888 0l-99.783112 127.203555a7.964444 7.964444 0 0 0 6.286223 12.913778h367.900444a7.964444 7.964444 0 0 0 6.286222-12.913778l-136.476444-173.994666a8.106667 8.106667 0 0 0-12.714667 0z m-193.109333-67.100445a39.992889 39.992889 0 1 0 80.014222 0 39.992889 39.992889 0 0 0-80.014222 0z" fill="#1890FF" ></path></svg>