<svg xmlns="http://www.w3.org/2000/svg" viewBox="0 0 1024 1024"><path d="M984.96 277.12L709.12 32.64a96.64 96.64 0 0 0-64-24.32H263.68a97.92 97.92 0 0 0-97.92 97.28v812.8a97.92 97.92 0 0 0 97.92 97.28h656a97.28 97.28 0 0 0 97.28-97.28V349.44a97.28 97.28 0 0 0-32-72.32z m-308.48-188.16l229.76 204.16h-229.76z m243.2 862.72H263.68a33.28 33.28 0 0 1-33.92-33.28V105.6a33.28 33.28 0 0 1 33.92-33.28h348.8v256a32 32 0 0 0 32 32h308.48v561.28a33.28 33.28 0 0 1-33.28 30.08z" fill="#286AB3" ></path><path d="M7.04 419.84m64 0l609.92 0q64 0 64 64l0 238.72q0 64-64 64l-609.92 0q-64 0-64-64l0-238.72q0-64 64-64Z" fill="#286AB3" ></path><path d="M296.96 479.36h37.76v167.68a96 96 0 0 1-17.28 64 81.28 81.28 0 0 1-64 22.4 73.6 73.6 0 0 1-55.68-20.48 81.28 81.28 0 0 1-19.84-56.96v-8.32h37.76v7.68c0 30.08 12.8 44.8 38.4 44.8a39.04 39.04 0 0 0 32-12.8 64 64 0 0 0 9.6-39.68zM536.96 492.8a76.8 76.8 0 0 1 29.44 59.52h-37.12A53.12 53.12 0 0 0 512 517.76a71.04 71.04 0 0 0-42.24-10.88 84.48 84.48 0 0 0-39.68 5.12 29.44 29.44 0 0 0 0 53.76 320 320 0 0 0 42.88 15.36 387.2 387.2 0 0 1 64 23.68 64 64 0 0 1 32 53.76 60.16 60.16 0 0 1-26.24 51.84 118.4 118.4 0 0 1-72.32 19.2 128 128 0 0 1-71.04-17.92 87.68 87.68 0 0 1-33.28-69.12h37.12a64 64 0 0 0 21.12 42.24 76.16 76.16 0 0 0 46.08 11.52 92.8 92.8 0 0 0 44.8-9.6 30.08 30.08 0 0 0 16.64-26.24 37.76 37.76 0 0 0-19.84-30.72c-5.76 0-22.4-8.32-49.28-16.64a429.44 429.44 0 0 1-56.96-20.48 53.76 53.76 0 0 1-28.16-49.28 57.6 57.6 0 0 1 27.52-51.2 110.72 110.72 0 0 1 64-17.92 107.52 107.52 0 0 1 67.84 18.56z" fill="#FFFFFF" ></path></svg>