<svg xmlns="http://www.w3.org/2000/svg" viewBox="0 0 1024 1024"><path d="M205.5 64H665l232 232v639c0 13.807-11.193 25-25 25H205.5c-13.807 0-25-11.193-25-25V89c0-13.807 11.193-25 25-25z m449.145 25H205.5v846H872V306.355L654.645 89z" fill="#B7B7BD" ></path><path d="M665 64l-11 23.5v197c0 13.807 11.193 25 25 25h194.5L897 296 665 64z m14 49.355L850.145 284.5H679V113.355z" fill="#B7B7BD" ></path><path d="M255 571m10 0l556 0q10 0 10 10l0 0q0 10-10 10l-556 0q-10 0-10-10l0 0q0-10 10-10Z" fill="#B7B7BD" ></path><path d="M255 707m10 0l556 0q10 0 10 10l0 0q0 10-10 10l-556 0q-10 0-10-10l0 0q0-10 10-10Z" fill="#B7B7BD" ></path><path d="M255 639m10 0l556 0q10 0 10 10l0 0q0 10-10 10l-556 0q-10 0-10-10l0 0q0-10 10-10Z" fill="#B7B7BD" ></path><path d="M255 774m10 0l556 0q10 0 10 10l0 0q0 10-10 10l-556 0q-10 0-10-10l0 0q0-10 10-10Z" fill="#B7B7BD" ></path><path d="M255 842m10 0l556 0q10 0 10 10l0 0q0 10-10 10l-556 0q-10 0-10-10l0 0q0-10 10-10Z" fill="#B7B7BD" ></path><path d="M67 193m16 0l287 0q16 0 16 16l0 287q0 16-16 16l-287 0q-16 0-16-16l0-287q0-16 16-16Z" fill="#FF4867" ></path><path d="M314.229 459.289c-21.407 0-40.606-36.765-50.708-60.673-16.991-7.098-35.722-13.728-53.918-18.014-15.92 10.514-43.014 26.251-63.818 26.251-12.911 0-22.21-6.496-25.622-17.813-2.609-9.309-0.4-15.738 2.409-19.22 5.485-7.5 16.79-11.317 33.715-11.317 13.714 0 31.107 2.41 50.507 7.098 12.51-8.907 25.22-19.22 36.525-30.135-5.017-23.84-10.503-62.48 3.412-80.294 6.89-8.505 17.393-11.318 30.103-7.5 13.914 4.017 19.199 12.522 20.804 19.22 5.887 23.237-20.804 54.578-38.8 72.994 4.015 15.938 9.3 32.747 15.721 48.15 25.822 11.518 56.527 28.728 60.006 47.48 1.405 6.495-0.602 12.522-5.887 17.813-4.549 3.75-9.365 5.96-14.45 5.96z m-31.647-52.419c12.785 26.402 24.975 38.862 31.4 38.862 0.995 0 2.386-0.404 4.373-2.02 2.385-2.425 2.385-4.041 1.988-5.523-1.325-6.937-12.124-18.32-37.761-31.319z m-126.377-35.247c-16.73 0-21.33 4.093-22.73 6.003-0.399 0.614-1.599 2.455-0.399 7.23 1 4.092 3.8 8.458 12.464 8.458 10.865 0 26.595-6.207 44.857-17.325-13.063-2.933-24.594-4.366-34.192-4.366z m67.632-1.765c10.845 2.983 22.09 6.827 32.535 10.803-3.792-9.809-6.853-20.015-9.448-29.824-7.651 6.561-15.436 12.99-23.087 19.021zM265.9 259.556c-3.827 0-6.513 1.409-8.93 4.024-7.118 8.917-7.924 31.38-2.418 60.144 20.884-22.26 32.232-42.711 29.411-53.64-0.402-1.61-1.611-6.504-11.348-9.32-2.686-0.805-4.7-1.208-6.715-1.208z" fill="#FFFFFF" ></path></svg>