<svg xmlns="http://www.w3.org/2000/svg" viewBox="0 0 1024 1024"><path d="M166.054054 0h513.660541a27.675676 27.675676 0 0 1 19.483675 8.025946l205.907027 204.025081a27.675676 27.675676 0 0 1 8.192 19.64973V968.648649a55.351351 55.351351 0 0 1-55.351351 55.351351H166.054054a55.351351 55.351351 0 0 1-55.351351-55.351351V55.351351a55.351351 55.351351 0 0 1 55.351351-55.351351z" fill="#3370FF" ></path><path d="M691.103135 2.449297a27.675676 27.675676 0 0 1 8.095135 5.562811l205.907027 204.038919a27.675676 27.675676 0 0 1 6.199352 9.354378H746.454486a55.351351 55.351351 0 0 1-55.351351-55.351351V2.449297z" fill="#154DCE" ></path><path d="M290.594595 484.324324a27.675676 27.675676 0 0 1 27.675675-27.675675h276.756757a27.675676 27.675676 0 0 1 27.675676 27.675675v276.756757a27.675676 27.675676 0 0 1-27.675676 27.675676H318.27027a27.675676 27.675676 0 0 1-27.675675-27.675676V484.324324z m110.702702 27.675676h-41.513513a13.837838 13.837838 0 0 0-13.837838 13.837838v41.513513a13.837838 13.837838 0 0 0 13.837838 13.837838h41.513513a13.837838 13.837838 0 0 0 13.837838-13.837838v-41.513513a13.837838 13.837838 0 0 0-13.837838-13.837838z m249.081081 41.513514l65.812757-37.611244A20.756757 20.756757 0 0 1 747.243243 533.932973v177.539459a20.756757 20.756757 0 0 1-31.052108 18.030703L650.378378 691.891892V553.513514z" fill="#FFFFFF" ></path></svg>