<svg xmlns="http://www.w3.org/2000/svg" viewBox="0 0 1024 1024"><path d="M205.5 64H665l232 232v639c0 13.807-11.193 25-25 25H205.5c-13.807 0-25-11.193-25-25V89c0-13.807 11.193-25 25-25z m449.145 25H205.5v846H872V306.355L654.645 89z" fill="#B7B7BD" ></path><path d="M665 64l-11 23.5v197c0 13.807 11.193 25 25 25h194.5L897 296 665 64z m14 49.355L850.145 284.5H679V113.355z" fill="#B7B7BD" ></path><path d="M67 193m16 0l287 0q16 0 16 16l0 287q0 16-16 16l-287 0q-16 0-16-16l0-287q0-16 16-16Z" fill="#4297FC" ></path><path d="M255 571m10 0l556 0q10 0 10 10l0 0q0 10-10 10l-556 0q-10 0-10-10l0 0q0-10 10-10Z" fill="#B7B7BD" ></path><path d="M255 707m10 0l556 0q10 0 10 10l0 0q0 10-10 10l-556 0q-10 0-10-10l0 0q0-10 10-10Z" fill="#B7B7BD" ></path><path d="M255 639m10 0l556 0q10 0 10 10l0 0q0 10-10 10l-556 0q-10 0-10-10l0 0q0-10 10-10Z" fill="#B7B7BD" ></path><path d="M255 774m10 0l556 0q10 0 10 10l0 0q0 10-10 10l-556 0q-10 0-10-10l0 0q0-10 10-10Z" fill="#B7B7BD" ></path><path d="M255 842m10 0l556 0q10 0 10 10l0 0q0 10-10 10l-556 0q-10 0-10-10l0 0q0-10 10-10Z" fill="#B7B7BD" ></path><path d="M315.269 451.314c7.015 7.61 19.731 2.651 19.731-7.693V271h-22.737v143.524l-76.9-83.418c-4.503-4.885-12.223-4.885-16.726 0l-76.9 83.418V271H119v172.62c0 10.345 12.716 15.303 19.731 7.694L227 355.564l88.269 95.75z" fill="#FFFFFF" ></path></svg>