<svg xmlns="http://www.w3.org/2000/svg" viewBox="0 0 1024 1024"><path d="M908.611316 239.279126l2.721684 711.518223c0 16.451366-13.204209 29.655575-29.642101 29.655575h-687.831489c-16.46484 0-29.655575-13.204209-29.655575-29.642102V73.000411c0-16.437893 13.204209-29.628628 29.642102-29.628627l522.468983-1.104842L675.1124 0H195.287621A69.48378 69.48378 0 0 0 125.709525 69.578096v884.843673A69.497254 69.497254 0 0 0 195.287621 1023.999865H880.235741a69.510728 69.510728 0 0 0 69.59157-69.578096V281.573016l-41.215995-42.29389z" fill="#D6473B" fill-opacity=".4" ></path><path d="M675.1124 206.21471a75.51999 75.51999 0 0 0 75.546937 75.546937h199.343132L675.1124 0v206.21471z" fill="#EF6A63" ></path><path d="M532.34526 481.091305H109.985737A96.498514 96.498514 0 0 1 13.47375 384.592792V320.781431A96.498514 96.498514 0 0 1 109.985737 224.269444H532.34526a96.48504 96.48504 0 0 1 96.498514 96.511987v63.811361a96.48504 96.48504 0 0 1-96.498514 96.498513" fill="#FA4E4E" ></path><path d="M463.11748 274.890069h49.340625v124.335142h77.177253v40.663573h-126.517878V274.890069z m-211.442498 0h65.064412l25.114944 100.298092 24.95326-100.298092h64.862307v164.998715h-40.474942v-125.776825l-31.258943 125.776825H323.233709l-31.083785-125.776825v125.776825h-40.474942V274.890069z m-184.185239 0h54.433677l28.348628 50.782309 27.486312-50.795783h53.867782L181.89478 354.762059l54.393256 85.126725H180.816886l-31.609259-52.951572-31.636207 52.951572H62.625743l55.134309-86.029462-50.256836-78.969253z" fill="#FFFFFF" ></path><path d="M249.869508 715.129169c11.735577-0.175158 21.328839-2.70821 28.725891-7.585683 7.410525-4.877473 12.287998-11.573893 14.821051-19.887155 2.533052-8.48842 3.799578-22.945681 3.974736-43.358311 0.188632-20.426103 0.552421-33.980627 1.455158-40.488415 1.441684-10.293893 3.974736-18.607155 7.774315-24.751155 3.772631-6.332631 8.299788-11.210104 13.918314-15.009682 5.41642-3.786105 12.449683-6.494315 21.126734-8.501894 5.793683-1.253052 15.373472-1.805473 28.564206-1.805473h12.826946v28.927996h-7.033262c-15.925893 0-26.583575 2.344421-31.636207 6.858104-5.254736 4.527157-7.774315 14.821051-7.774314 30.719996 0 32.175154-0.902737 52.412625-2.533053 60.725887-2.70821 13.204209-7.410525 23.147786-14.093471 30.356207-6.682946 7.06021-17.165471 13.39284-31.272417 18.997892 16.815156 5.591578 29.103154 14.282103 36.688837 25.829049 7.585683 11.587367 11.398735 30.544838 11.398735 56.926308 0 23.861892 0.350316 38.130521 0.889263 42.671153 1.28 8.313262 4.351999 14.079998 9.215999 17.515787 5.079578 3.260631 14.821051 4.877473 29.278312 4.877473h7.06021v28.927996h-12.826946c-15.009682 0-25.855997-0.902737-32.538943-2.883368-9.754946-2.910315-17.89305-7.410525-24.400839-13.743156-6.507789-6.332631-10.657683-14.282103-12.47663-24.03705-1.980631-9.76842-2.883368-25.492207-3.058526-47.521677-0.188632-22.069892-1.455158-37.241258-3.98821-45.743152a35.301048 35.301048 0 0 0-14.821051-20.062314c-7.397052-4.877473-16.97684-7.410525-28.725891-7.774314v-30.181049h-0.538947zM773.254702 667.41886H457.70106a30.046312 30.046312 0 0 1-30.005891-30.005891v-5.578105a30.059786 30.059786 0 0 1 30.005891-30.019364h315.553642a30.059786 30.059786 0 0 1 30.005891 30.019364v5.578105c0.161684 16.639998-13.379367 30.005891-30.005891 30.005891M773.254702 785.623476H457.70106a30.046312 30.046312 0 0 1-30.005891-30.005891v-5.605052a30.046312 30.046312 0 0 1 30.005891-30.005891h315.553642a30.059786 30.059786 0 0 1 30.005891 30.005891v5.605052c0.161684 16.437893-13.379367 30.005891-30.005891 30.005891M773.254702 903.63946H457.70106a30.046312 30.046312 0 0 1-30.005891-30.005891v-5.605052a30.046312 30.046312 0 0 1 30.005891-30.00589h315.553642a30.046312 30.046312 0 0 1 30.005891 30.00589v5.605052c0.161684 16.626524-13.379367 30.005891-30.005891 30.005891" fill="#EF6A63" ></path></svg>