<svg xmlns="http://www.w3.org/2000/svg" viewBox="0 0 1024 1024"><path d="M90.898002 585.183559V40.413248A38.577551 38.577551 0 0 1 131.267476 0.094972H727.798775v182.827384c0 20.223135 15.871322 36.529638 35.377687 36.529638h176.939636v365.680368l-849.192497 0.051197z" fill="#FFDBD9" ></path><path d="M728.105961 0.222966l212.266126 219.382622h-176.888438a35.966462 35.966462 0 0 1-35.377688-36.555237V0.222966z" fill="#F58072" ></path><path d="M969.55484 585.183559c22.859823 0.076797 41.342233 19.199179 41.291034 42.878167v353.060107A42.1102 42.1102 0 0 1 969.631636 1024H61.459261a42.1102 42.1102 0 0 1-41.291035-42.878167V628.010529a42.238194 42.238194 0 0 1 41.291035-42.82697h908.06998zM325.819159 213.385054a17.279261 17.279261 0 1 1 0 34.60972 34.046545 34.046545 0 0 0-34.404929 31.230665l-0.153593 3.404655v34.558522a69.168243 69.168243 0 0 1-23.986175 51.888982 69.117045 69.117045 0 0 1 23.806982 46.769201l0.179193 5.119781v34.635319a34.097742 34.097742 0 0 0 34.558522 34.558523 17.279261 17.279261 0 0 1 0 34.558522 69.398633 69.398633 0 0 1-69.040248-64.816429l-0.127995-4.351814v-34.558522c0-19.531965-15.103354-34.635319-34.558522-34.686518a17.279261 17.279261 0 0 1 0-34.558522c18.303218 0 32.817797-13.388228 34.456127-31.179467l0.153593-3.379056v-34.635319a69.373034 69.373034 0 0 1 69.117045-69.168243z m377.814249 0a69.373034 69.373034 0 0 1 70.780974 64.176456l0.179192 5.068584v34.558522a34.174539 34.174539 0 0 0 34.558523 34.609721 17.279261 17.279261 0 1 1 0 34.558522c-18.303218 0-32.817797 13.388228-34.456127 31.230665l-0.153594 3.404655v34.60972c0 38.014375-31.10267 69.117045-69.117045 69.117045a17.30486 17.30486 0 1 1 0-34.60972 34.046545 34.046545 0 0 0 34.404929-31.179467l0.153594-3.379056v-34.558522c0.102396-19.967146 8.857221-38.935935 23.986174-51.965779a69.01465 69.01465 0 0 1-23.806982-46.718003l-0.179192-5.119781v-34.635319c0-19.455168-15.103354-34.558523-34.63532-34.558523a17.279261 17.279261 0 0 1-18.175223-16.434497 17.279261 17.279261 0 0 1 16.460097-18.175223z m-300.35196 179.704317a34.584122 34.584122 0 1 1 0 69.168243 34.584122 34.584122 0 0 1 0-69.168243z m111.867217 0a34.584122 34.584122 0 1 1 0 69.168243 34.584122 34.584122 0 0 1 0-69.168243z m111.81602 0a34.584122 34.584122 0 1 1 0 69.168243 34.584122 34.584122 0 0 1 0-69.168243z" fill="#F05542" ></path><path d="M197.978224 929.284049v-92.488846l76.131146-160.095556H221.529218l-25.240521 61.437374c-7.167694 18.789597-14.693772 36.529638-22.527037 55.984806h-1.382341c-7.833265-19.455168-14.668173-37.19521-21.835867-55.984806l-25.26612-61.437374H71.698823l75.772761 160.095556V929.284049h50.50664z m117.422181 0l17.740041-64.842028h81.916498l17.765641 64.842028h52.887339L404.484596 676.699647h-59.389461L264.202593 929.284049h51.197812z m88.751406-104.110749H344.071179l7.500479-27.646818c7.526078-26.264477 15.026558-54.935252 21.503081-82.58207h1.382341c7.500479 27.288433 14.335387 56.317592 22.168652 82.58207l7.526079 27.646818z m156.665302 104.110749v-105.467491c0-23.883779-4.095825-59.056675-6.502122-82.940454h1.382341l20.12074 59.389461 39.268721 106.158661h29.00356l38.910337-106.158661 20.479124-59.389461h1.356742c-2.380698 23.883779-6.143737 59.056675-6.143737 82.940454v105.467491h46.07803v-252.584402h-55.959208l-41.982205 118.113351c-5.478166 15.692129-9.906776 32.408215-15.359343 48.791514H629.754966c-5.119781-16.3833-9.906776-33.099385-15.359343-48.791514l-43.006162-118.113351h-55.984807V929.284049h45.412459z m398.984543 0v-42.314991h-102.395622v-210.269411H806.899393V929.284049h152.902263z" fill="#FFFFFF" ></path></svg>