<?xml version="1.0" standalone="no"?><!DOCTYPE svg PUBLIC "-//W3C//DTD SVG 1.1//EN" "http://www.w3.org/Graphics/SVG/1.1/DTD/svg11.dtd"><svg t="1621859009605" class="icon" viewBox="0 0 1024 1024" version="1.1" xmlns="http://www.w3.org/2000/svg" p-id="9709" xmlns:xlink="http://www.w3.org/1999/xlink" width="200" height="200"><defs><style type="text/css"></style></defs><path d="M820.203922 812.172549H684.67451v-45.176471h112.439215V279.090196H633.47451l-85.333334 277.082353c-3.011765 10.039216-12.047059 16.062745-22.086274 16.062745-10.039216 0-19.07451-7.027451-21.082353-17.066667l-71.278431-280.094117h-180.705883V762.980392h120.470589v45.176471H229.898039c-12.047059 0-22.086275-10.039216-22.086274-22.086275V252.988235c0-12.047059 10.039216-22.086275 22.086274-22.086274H451.764706c10.039216 0 19.07451 7.027451 22.086274 17.066666l55.215687 218.854902L595.32549 250.980392c3.011765-9.035294 12.047059-16.062745 21.082353-16.062745h202.792157c12.047059 0 22.086275 10.039216 22.086275 22.086275v533.082353c1.003922 12.047059-9.035294 22.086275-21.082353 22.086274z m0 0" fill="#e25813" p-id="9710"></path><path d="M731.858824 425.662745c4.015686-12.047059-2.007843-25.098039-14.054902-29.113725-12.047059-4.015686-25.098039 2.007843-29.113726 14.054902L563.2 766.996078h-73.286275L371.45098 410.603922c-4.015686-12.047059-17.066667-18.070588-28.109804-14.054902-12.047059 4.015686-18.070588 17.066667-14.054901 28.109804l123.482352 371.45098c3.011765 9.035294 12.047059 15.058824 21.082353 15.058823h72.282353l-53.207843 160.627451 46.180392 2.007844 192.752942-548.141177z" fill="#2c2c2c" p-id="9711"></path></svg>