<?xml version="1.0" standalone="no"?><!DOCTYPE svg PUBLIC "-//W3C//DTD SVG 1.1//EN" "http://www.w3.org/Graphics/SVG/1.1/DTD/svg11.dtd"><svg height="1024" node-id="1" sillyvg="true" template-height="1024" template-width="1024" version="1.1" viewBox="0 0 1024 1024" width="1024" xmlns="http://www.w3.org/2000/svg" xmlns:xlink="http://www.w3.org/1999/xlink"><defs node-id="30"></defs><g node-id="77"><g node-id="78"><path d="M 0.00 0.00 L 1024.00 0.00 L 1024.00 1024.00 L 0.00 1024.00 Z" fill="none" group-id="1,2" node-id="35" stroke="none" target-height="1024" target-width="1024" target-x="0" target-y="0"></path><path d="M 161.31 691.68 L 167.66 717.42 C 168.37 720.31 170.62 722.56 173.51 723.27 L 199.25 729.61 C 200.15 729.83 200.78 730.63 200.78 731.55 C 200.78 732.48 200.15 733.28 199.25 733.50 L 173.51 739.84 C 170.62 740.55 168.37 742.80 167.66 745.69 L 161.31 771.44 C 161.09 772.33 160.29 772.95 159.37 772.95 C 158.45 772.95 157.65 772.33 157.43 771.44 L 151.08 745.69 C 150.37 742.80 148.12 740.55 145.23 739.84 L 119.49 733.50 C 118.59 733.28 117.96 732.48 117.96 731.55 C 117.96 730.63 118.59 729.83 119.49 729.61 L 145.23 723.27 C 148.12 722.56 150.37 720.31 151.08 717.42 L 157.43 691.68 C 157.65 690.79 158.45 690.17 159.37 690.17 C 160.29 690.17 161.09 690.79 161.31 691.68 Z" fill="#ccdeff" fill-rule="nonzero" group-id="1,2" node-id="37" stroke="none" target-height="82.7876" target-width="82.82839" target-x="117.9558" target-y="690.1662"></path><path d="M 763.62 113.94 L 761.62 135.22 C 761.41 137.61 762.53 139.92 764.54 141.22 L 782.47 152.84 C 783.08 153.24 783.34 154.01 783.11 154.70 C 782.87 155.39 782.20 155.84 781.47 155.79 L 760.19 153.85 C 757.81 153.63 755.50 154.75 754.19 156.76 L 742.58 174.69 C 742.20 175.36 741.40 175.67 740.67 175.43 C 739.93 175.19 739.48 174.46 739.58 173.69 L 741.58 152.41 C 741.80 150.02 740.68 147.71 738.67 146.41 L 720.74 134.79 C 720.07 134.41 719.76 133.61 720.00 132.88 C 720.24 132.14 720.97 131.69 721.74 131.79 L 743.01 133.79 C 745.40 134.00 747.70 132.88 749.01 130.87 L 760.63 112.94 C 761.01 112.28 761.81 111.98 762.53 112.22 C 763.26 112.47 763.71 113.18 763.62 113.94 Z" fill="#ccdeff" fill-rule="nonzero" group-id="1,2" node-id="39" stroke="none" target-height="63.692215" target-width="63.587036" target-x="719.75635" target-y="111.98143"></path><path d="M 239.36 831.69 L 255.49 850.15 C 257.30 852.22 260.11 853.11 262.78 852.47 L 286.62 846.77 C 287.45 846.58 288.29 846.97 288.68 847.73 C 289.07 848.48 288.90 849.40 288.26 849.96 L 269.81 866.09 C 267.74 867.90 266.84 870.71 267.48 873.38 L 273.19 897.21 C 273.39 898.04 273.00 898.89 272.24 899.28 C 271.49 899.67 270.56 899.50 270.00 898.86 L 253.87 880.41 C 252.06 878.34 249.25 877.44 246.58 878.08 L 222.74 883.78 C 221.91 883.98 221.06 883.59 220.67 882.83 C 220.28 882.08 220.45 881.15 221.09 880.59 L 239.55 864.46 C 241.62 862.65 242.52 859.84 241.88 857.17 L 236.17 833.34 C 235.97 832.51 236.36 831.66 237.12 831.27 C 237.87 830.88 238.80 831.05 239.36 831.69 Z" fill="#ccdeff" fill-rule="nonzero" group-id="1,2" node-id="41" stroke="none" target-height="68.79767" target-width="68.7926" target-x="220.27618" target-y="830.87616"></path><path d="M 896.00 360.00 C 896.00 373.25 885.25 384.00 872.00 384.00 C 858.75 384.00 848.00 373.25 848.00 360.00 C 848.00 346.75 858.75 336.00 872.00 336.00 C 885.25 336.00 896.00 346.75 896.00 360.00 Z" fill="#ccdeff" fill-rule="nonzero" group-id="1,2" node-id="43" stroke="none" target-height="48" target-width="48" target-x="848" target-y="336"></path><path d="M 246.23 203.62 C 267.01 203.62 283.91 186.41 283.91 165.26 C 283.92 157.66 281.69 150.23 277.50 143.89 C 271.32 139.64 264.00 137.37 256.50 137.37 C 255.65 137.37 254.75 137.37 253.68 137.49 C 252.25 137.59 250.91 136.79 250.32 135.49 C 248.88 132.39 247.01 129.51 244.75 126.95 L 243.40 127.03 C 241.97 127.14 240.63 126.34 240.04 125.03 C 239.28 123.37 238.38 121.78 237.36 120.26 C 227.99 113.50 215.31 109.48 201.69 109.48 C 173.36 109.48 150.31 126.69 150.31 147.84 C 150.32 148.76 149.96 149.64 149.32 150.29 C 148.68 150.94 147.81 151.31 146.89 151.32 C 126.11 151.32 109.21 165.40 109.21 182.71 C 109.23 187.71 110.64 192.61 113.27 196.86 C 120.23 201.34 128.34 203.69 136.61 203.63 Z" fill="#80adff" fill-rule="nonzero" group-id="1,2" node-id="45" stroke="none" target-height="94.2132" target-width="174.71463" target-x="109.21" target-y="109.48"></path><path d="M 246.23 211.11 L 232.53 211.11 C 230.32 211.11 228.53 209.32 228.53 207.11 C 228.53 204.90 230.32 203.11 232.53 203.11 L 246.23 203.11 C 266.69 203.11 283.33 186.11 283.33 165.26 C 283.33 144.41 266.69 127.42 246.23 127.42 C 245.40 127.42 244.52 127.42 243.46 127.53 C 241.79 127.66 240.22 126.73 239.52 125.21 C 232.52 109.84 213.15 99.52 191.43 99.52 C 163.43 99.52 140.62 116.52 140.62 137.37 C 140.62 139.58 138.83 141.37 136.62 141.37 C 116.16 141.37 99.52 155.21 99.52 172.24 C 99.52 189.27 116.16 203.11 136.62 203.11 L 205.13 203.11 C 207.34 203.11 209.13 204.90 209.13 207.11 C 209.13 209.32 207.34 211.11 205.13 211.11 L 136.62 211.11 C 111.75 211.11 91.52 193.67 91.52 172.24 C 91.52 151.90 109.73 135.17 132.83 133.50 C 135.35 110.02 160.67 91.50 191.43 91.50 C 215.09 91.50 236.43 102.61 245.56 119.40 L 246.23 119.40 C 271.10 119.40 291.33 139.96 291.33 165.24 C 291.33 190.52 271.10 211.11 246.23 211.11 Z" fill="#101129" fill-rule="nonzero" group-id="1,2" node-id="47" stroke="none" target-height="119.61" target-width="199.81" target-x="91.52" target-y="91.5"></path><path d="M 918.73 892.13 C 939.52 892.13 956.44 872.39 956.44 848.13 C 956.48 839.53 954.25 831.08 950.00 823.61 C 944.04 818.82 936.64 816.18 929.00 816.13 C 928.15 816.13 927.26 816.13 926.18 816.27 C 924.67 816.34 923.30 815.40 922.82 813.97 C 921.41 810.47 919.53 807.17 917.24 804.17 L 915.89 804.27 C 914.38 804.34 913.01 803.40 912.53 801.97 C 911.77 800.08 910.87 798.26 909.85 796.50 C 899.73 788.38 887.11 784.01 874.14 784.13 C 845.79 784.13 822.72 803.87 822.72 828.13 C 822.86 830.18 821.34 831.96 819.29 832.13 C 798.49 832.13 781.57 848.28 781.57 868.13 C 781.57 873.79 782.97 879.37 785.64 884.36 C 792.37 889.43 800.57 892.16 809.00 892.13 Z" fill="#80adff" fill-rule="nonzero" group-id="1,2" node-id="49" stroke="none" target-height="108.15027" target-width="174.9054" target-x="781.57" target-y="784.00586"></path><path d="M 918.73 900.13 L 905.00 900.13 C 902.79 900.13 901.00 898.34 901.00 896.13 C 901.00 893.92 902.79 892.13 905.00 892.13 L 918.72 892.13 C 939.20 892.13 955.86 872.39 955.86 848.13 C 955.86 823.87 939.20 804.13 918.72 804.13 C 917.91 804.13 917.04 804.13 915.98 804.26 C 914.24 804.39 912.63 803.37 911.98 801.76 C 904.89 784.04 885.57 772.13 863.91 772.13 C 835.91 772.13 813.05 791.87 813.05 816.13 C 813.05 818.34 811.26 820.13 809.05 820.13 C 788.57 820.13 771.91 836.28 771.91 856.13 C 771.91 875.98 788.57 892.13 809.05 892.13 L 877.62 892.13 C 879.83 892.13 881.62 893.92 881.62 896.13 C 881.62 898.34 879.83 900.13 877.62 900.13 L 809.00 900.13 C 784.11 900.13 763.86 880.39 763.86 856.13 C 763.86 833.13 782.06 814.19 805.16 812.29 C 807.39 785.40 832.87 764.13 863.86 764.13 C 887.68 764.13 909.12 776.88 918.20 796.13 L 918.72 796.13 C 943.61 796.13 963.86 819.46 963.86 848.13 C 963.86 876.80 943.62 900.13 918.73 900.13 Z" fill="#101129" fill-rule="nonzero" group-id="1,2" node-id="51" stroke="none" target-height="136" target-width="200" target-x="763.86" target-y="764.13"></path><path d="M 512.00 192.00 C 392.44 220.52 313.17 254.22 250.76 299.20 C 233.99 311.24 224.03 330.61 224.00 351.26 L 224.00 640.00 C 224.00 640.00 272.00 816.00 512.00 896.00 C 752.00 816.00 800.00 640.00 800.00 640.00 L 800.00 351.26 C 799.97 330.61 790.01 311.24 773.24 299.20 C 710.83 254.22 631.56 220.52 512.00 192.00 Z" fill="#ffffff" fill-rule="nonzero" group-id="1,2" node-id="53" stroke="none" target-height="704" target-width="576" target-x="224" target-y="192"></path><path d="M 512.00 900.00 C 511.57 900.00 511.14 899.93 510.73 899.79 C 455.60 881.42 406.00 856.42 363.40 825.49 C 330.03 801.47 300.21 772.85 274.84 740.49 C 232.84 686.49 220.64 642.91 220.14 641.08 C 220.05 640.75 220.01 640.42 220.00 640.08 L 220.00 351.26 C 220.07 329.35 230.64 308.80 248.42 296.00 C 313.26 249.27 394.26 216.00 511.07 188.15 C 511.68 188.00 512.32 188.00 512.93 188.15 C 629.74 216.00 710.74 249.23 775.58 296.00 C 793.36 308.80 803.93 329.35 804.00 351.26 L 804.00 640.00 C 803.99 640.34 803.95 640.67 803.86 641.00 C 803.36 642.83 791.17 686.40 749.16 740.41 C 723.79 772.77 693.97 801.39 660.60 825.41 C 617.97 856.34 568.40 881.34 513.26 899.71 C 512.86 899.88 512.43 899.97 512.00 900.00 Z M 228.00 639.43 C 229.47 644.37 242.60 686.08 281.42 735.88 C 319.27 784.43 390.00 850.81 512.00 891.78 C 634.25 850.78 705.00 784.21 742.84 735.54 C 781.54 685.80 794.54 644.36 796.00 639.44 L 796.00 351.26 C 795.94 331.91 786.61 313.75 770.90 302.45 C 707.12 256.45 627.25 223.67 512.00 196.11 C 396.75 223.67 316.88 256.49 253.10 302.45 C 237.39 313.75 228.06 331.91 228.00 351.26 Z" fill="#101129" fill-rule="nonzero" group-id="1,2" node-id="55" stroke="none" target-height="712" target-width="584" target-x="220" target-y="187.99998"></path><path d="M 735.66 676.00 C 734.92 676.00 734.19 675.79 733.56 675.40 C 731.68 674.24 731.10 671.78 732.26 669.90 C 738.49 659.84 744.20 649.47 749.35 638.82 C 749.93 637.47 751.21 636.55 752.67 636.42 C 754.13 636.28 755.55 636.97 756.36 638.20 C 757.17 639.42 757.24 640.99 756.55 642.29 C 751.28 653.19 745.44 663.81 739.07 674.10 C 738.34 675.28 737.05 676.00 735.66 676.00 Z" fill="#101129" fill-rule="nonzero" group-id="1,2" node-id="57" stroke="none" target-height="39.717102" target-width="26.142456" target-x="731.1024" target-y="636.28485"></path><path d="M 638.00 783.88 C 636.29 783.88 634.77 782.80 634.21 781.19 C 633.66 779.57 634.19 777.78 635.53 776.73 C 652.43 763.51 668.33 749.06 683.10 733.50 C 692.73 723.33 701.84 712.67 710.37 701.56 C 711.72 699.81 714.23 699.48 715.98 700.83 C 717.74 702.17 718.07 704.69 716.72 706.44 C 708.01 717.77 698.73 728.63 688.90 739.00 C 673.86 754.84 657.67 769.54 640.47 783.00 C 639.77 783.56 638.90 783.87 638.00 783.88 Z" fill="#101129" fill-rule="nonzero" group-id="1,2" node-id="59" stroke="none" target-height="84.4046" target-width="84.41058" target-x="633.657" target-y="699.4774"></path><path d="M 704.00 480.00 L 512.00 480.00 L 512.00 288.00 C 618.67 298.67 682.67 330.67 704.00 384.00 Z" fill="#80adff" fill-rule="nonzero" group-id="1,2" node-id="61" stroke="none" target-height="192" target-width="192" target-x="512" target-y="288"></path><path d="M 704.00 484.00 L 512.00 484.00 C 509.79 484.00 508.00 482.21 508.00 480.00 L 508.00 288.00 C 507.99 286.87 508.47 285.78 509.31 285.02 C 510.15 284.26 511.27 283.89 512.40 284.00 C 565.97 289.36 609.50 300.26 641.79 316.40 C 674.54 332.78 696.72 355.02 707.71 382.49 C 707.90 382.97 708.00 383.48 708.00 384.00 L 708.00 480.00 C 708.00 482.21 706.21 484.00 704.00 484.00 Z M 516.00 476.00 L 700.00 476.00 L 700.00 384.78 C 689.66 359.50 668.87 338.91 638.21 323.58 C 607.55 308.25 566.58 297.84 516.00 292.44 Z" fill="#101129" fill-rule="nonzero" group-id="1,2" node-id="63" stroke="none" target-height="200.1134" target-width="200.00757" target-x="507.99432" target-y="283.8866"></path><path d="M 320.00 480.00 L 512.00 480.00 L 512.00 672.00 C 405.33 661.33 341.33 629.33 320.00 576.00 Z" fill="#81e6c1" fill-rule="nonzero" group-id="1,2" node-id="65" stroke="none" target-height="192" target-width="192" target-x="320" target-y="480"></path><path d="M 512.00 676.00 L 511.60 676.00 C 458.03 670.64 414.50 659.74 382.21 643.60 C 349.46 627.22 327.28 604.98 316.29 577.51 C 316.10 577.03 316.00 576.52 316.00 576.00 L 316.00 480.00 C 316.00 477.79 317.79 476.00 320.00 476.00 L 512.00 476.00 C 514.21 476.00 516.00 477.79 516.00 480.00 L 516.00 672.00 C 516.00 674.21 514.21 676.00 512.00 676.00 Z M 324.00 575.22 C 334.34 600.50 355.13 621.09 385.79 636.42 C 416.45 651.75 457.42 662.16 508.00 667.57 L 508.00 484.00 L 324.00 484.00 Z" fill="#101129" fill-rule="nonzero" group-id="1,2" node-id="67" stroke="none" target-height="200" target-width="200.00189" target-x="315.9981" target-y="476"></path><path d="M 408.00 304.00 L 408.00 304.00 C 447.76 304.00 480.00 336.24 480.00 376.00 L 480.00 376.00 C 480.00 415.76 447.76 448.00 408.00 448.00 L 408.00 448.00 C 368.24 448.00 336.00 415.76 336.00 376.00 L 336.00 376.00 C 336.00 336.24 368.24 304.00 408.00 304.00 Z" fill="#81e6c1" fill-rule="nonzero" group-id="1,2" node-id="69" stroke="none" target-height="144" target-width="144" target-x="336" target-y="304"></path><path d="M 408.00 452.00 C 366.03 452.00 332.00 417.97 332.00 376.00 C 332.00 334.03 366.03 300.00 408.00 300.00 C 449.97 300.00 484.00 334.03 484.00 376.00 C 483.96 417.96 449.96 451.96 408.00 452.00 Z M 408.00 308.00 C 370.44 308.00 340.00 338.44 340.00 376.00 C 340.00 413.56 370.44 444.00 408.00 444.00 C 445.56 444.00 476.00 413.56 476.00 376.00 C 475.96 338.46 445.54 308.04 408.00 308.00 Z" fill="#101129" fill-rule="nonzero" group-id="1,2" node-id="71" stroke="none" target-height="152" target-width="152" target-x="332" target-y="300"></path><path d="M 544.89 672.40 L 703.89 511.40 L 543.89 511.40 L 544.89 672.40 Z" fill="#ffdc8a" fill-rule="nonzero" group-id="1,2" node-id="73" stroke="none" target-height="161.00003" target-width="160" target-x="543.89" target-y="511.4"></path><path d="M 544.89 676.40 C 544.38 676.40 543.87 676.30 543.39 676.11 C 541.89 675.50 540.90 674.05 540.89 672.43 L 539.89 511.43 C 539.89 509.22 541.68 507.43 543.89 507.43 L 703.89 507.43 C 705.50 507.43 706.96 508.40 707.58 509.89 C 708.21 511.37 707.87 513.09 706.74 514.24 L 547.74 675.24 C 546.98 675.99 545.96 676.41 544.89 676.40 Z M 547.89 515.40 L 548.80 662.72 L 694.32 515.40 Z" fill="#101129" fill-rule="nonzero" group-id="1,2" node-id="75" stroke="none" target-height="168.98013" target-width="168.31616" target-x="539.89" target-y="507.42868"></path></g></g></svg>