<svg xmlns="http://www.w3.org/2000/svg" viewBox="0 0 1024 1024"><path d="M940.8 728.32c-49.493333 26.026667-307.2 131.84-361.813333 160.426667s-85.333333 28.16-128.426667 7.68-317.013333-131.413333-366.506667-154.88c-24.746667-11.946667-37.546667-21.76-37.546666-31.146667v-94.293333s356.693333-77.653333 414.293333-98.133334 77.653333-21.333333 126.72-3.413333 341.76 70.826667 390.4 88.32V695.466667c0 8.533333-11.52 19.626667-37.12 32.853333z" fill="#A42122" ></path><path d="M940.8 634.026667c-49.493333 26.026667-307.2 131.84-361.813333 160.426666s-85.333333 28.16-128.426667 7.68-317.013333-131.413333-366.506667-154.88-50.346667-39.68-1.706666-58.88 320.853333-125.866667 378.453333-146.346666 77.653333-21.333333 126.72-3.413334 304.64 119.893333 353.28 137.386667 49.92 32.426667 0 58.026667z" fill="#D82F27" ></path><path d="M940.8 574.72c-49.493333 26.026667-307.2 131.84-361.813333 160.426667s-85.333333 28.16-128.426667 7.68-317.013333-131.413333-366.506667-154.88c-24.746667-11.946667-37.546667-21.76-37.546666-31.146667v-94.293333s356.693333-77.653333 414.293333-98.133334 77.653333-21.333333 126.72-3.413333 341.76 70.826667 390.4 88.32V541.866667c0 8.533333-11.52 19.626667-37.12 32.853333z" fill="#A42122" ></path><path d="M940.8 480.853333c-49.493333 26.026667-307.2 131.84-361.813333 160.426667s-85.333333 28.16-128.426667 7.68-317.013333-131.413333-366.506667-154.88-50.346667-39.68-1.706666-58.88S403.2 308.906667 460.8 288.426667s77.653333-21.333333 126.72-3.413334 304.64 119.893333 352.853333 137.386667 50.346667 32.426667 0.426667 58.453333z" fill="#D82F27" ></path><path d="M940.8 415.573333c-49.493333 26.026667-307.2 131.84-361.813333 160.426667s-85.333333 28.16-128.426667 7.68-317.013333-131.413333-366.506667-154.88c-24.746667-11.946667-37.546667-21.76-37.546666-31.146667V303.36s356.693333-77.653333 414.293333-98.133333 77.653333-21.333333 126.72-3.413334 341.333333 70.826667 389.973333 88.32v92.586667c0 8.533333-11.093333 19.626667-36.693333 32.853333z" fill="#A42122" ></path><path d="M940.8 321.706667c-49.493333 26.026667-307.2 131.84-361.813333 160.426666s-85.333333 28.16-128.426667 7.68-317.013333-131.84-366.506667-155.306666-50.346667-39.68-1.706666-58.88S403.2 149.76 460.8 129.28s77.653333-21.333333 126.72-3.413333 304.64 119.893333 353.28 137.386666 49.92 32.426667 0 58.453334z" fill="#D82F27" ></path><path d="M634.026667 230.826667l-80.64 8.533333-17.92 43.52-29.44-48.64L413.013333 226.133333l69.546667-25.173333-20.906667-38.4 64.853334 25.173333 61.44-20.053333-16.64 39.68 62.72 23.466667zM530.346667 441.6L379.733333 379.306667l215.893334-33.28-65.28 95.573333z" fill="#FFFFFF" ></path><path d="M206.506667 299.946667a115.2 44.8 0 1 0 230.4 0 115.2 44.8 0 1 0-230.4 0Z" fill="#FFFFFF" ></path><path d="M729.173333 242.773333l128 50.346667L729.6 343.893333l-0.426667-101.12z" fill="#791514" ></path><path d="M587.946667 298.666667l141.226666-55.893334 0.426667 101.12-14.08 5.12L587.946667 298.666667z" fill="#AD2524" ></path></svg>