<svg xmlns="http://www.w3.org/2000/svg" viewBox="0 0 1024 1024"><path d="M897.8125003 599.75c-0.37500029 8.58750029-11.73750029 18.18749971-35.06250058 30.375-47.99999971 25.01250029-296.84999971 127.35-349.79999942 154.95000029-52.9875 27.60000029-82.38750029 27.3375-124.23750029 7.3125-41.85-19.98749971-306.60000029-126.97499971-354.30000029-149.7375-23.81249971-11.40000029-35.96249971-20.99999971-36.37499942-30.07500029v90.97499971c0 9.07499971 12.52500029 18.71250029 36.37499942 30.11250058 47.7 22.79999971 312.48749971 129.75000029 354.30000029 149.7375 41.85 20.025 71.25000029 20.28750029 124.23750029-7.35000029 52.94999971-27.60000029 301.76250029-129.89999971 349.79999942-154.95000029 24.4125-12.7125 35.25000029-22.6125 35.25000029-31.57499971v-89.70000029l-0.18749971-0.07499971z" fill="" ></path><path d="M897.77500001 451.43749971c-0.37500029 8.58750029-11.73750029 18.15000029-35.02500029 30.33750058-47.99999971 25.01250029-296.84999971 127.35-349.79999942 154.94999942-52.9875 27.60000029-82.38750029 27.3375-124.23750029 7.35000029-41.85-19.98749971-306.60000029-126.97499971-354.30000029-149.77500029-23.81249971-11.3625-35.96249971-20.99999971-36.37499942-30.0375v90.97500058c0 9.07499971 12.52500029 18.675 36.37499942 30.07499942 47.7 22.79999971 312.45000029 129.75000029 354.30000029 149.7375 41.85 20.025 71.25000029 20.28750029 124.23750029-7.3125 52.94999971-27.60000029 301.76250029-129.9375 349.79999942-154.94999942 24.4125-12.75000029 35.25000029-22.65000029 35.25000029-31.6125v-89.70000029l-0.225-0.03750029z" fill="" ></path><path d="M897.77500001 297.61250029c0.45-9.15000029-11.51250029-17.17499971-35.58750029-26.02500029-46.8-17.13750029-294.11250029-115.57500029-341.47499942-132.93749971-47.3625-17.325-66.63750029-16.61249971-122.25000058 3.375C342.7375003 161.93750029 79.41249972 265.24999971 32.5750003 283.55000029c-23.43750029 9.225-34.875 17.73749971-34.50000058 26.81249942V401.37499971c0 9.07499971 12.52500029 18.675 36.37500029 30.07500029 47.7 22.79999971 312.45000029 129.78749971 354.30000029 149.77500029 41.85 19.98749971 71.25000029 20.25 124.23749942-7.35000029 52.94999971-27.60000029 301.76250029-129.9375 349.80000029-154.95000029 24.4125-12.75000029 35.25000029-22.65000029 35.25000029-31.6125V297.61250029h-0.30000058zM320.31250001 383.75l208.53749971-32.02499971-63 92.3625-145.49999942-60.33750029z m461.25-83.17500029l-123.33750029 48.75000029-13.3875 5.24999971-123.26249971-48.74999942 136.575-54 123.37499971 48.74999942z m-362.09999971-89.36249942l-20.17500029-37.20000058 62.92500029 24.60000058 59.32499942-19.42500058-16.04999971 38.43750058 60.45000029 22.64999942-77.9625 8.1-17.47500029 42.00000029-28.19999971-46.83750029-90-8.1 67.1625-24.22499942z m-155.3625 52.49999971c61.57500029 0 111.44999971 19.31249971 111.44999971 43.16249971s-49.87500029 43.2-111.44999971 43.2-111.4875-19.38750029-111.4875-43.2c0-23.85 49.91249971-43.2 111.4875-43.2z" fill="" ></path></svg>