<svg xmlns="http://www.w3.org/2000/svg" viewBox="0 0 1024 1024"><path d="M96.426667 649.173333H712.96a137.173333 137.173333 0 0 0 0-274.346666H96.426667c-12.8 43.52-19.626667 89.514667-19.626667 137.173333s6.826667 93.696 19.626667 137.173333z" fill="#07A5DE" p-id="6101"></path><path d="M563.2 25.6A486.4 486.4 0 0 0 125.354667 299.946667H837.546667c52.096 0 97.450667-29.013333 120.661333-71.808A485.76 485.76 0 0 0 563.2 25.6z" fill="#EFBF19" p-id="6102"></path><path d="M942.421333 816.64a137.258667 137.258667 0 0 0-129.749333-92.586667H125.312A486.4 486.4 0 0 0 563.2 998.4c153.344 0 290.090667-70.954667 379.221333-181.76z" fill="#3EBEB1" p-id="6103"></path><path d="M506.197333 649.173333c12.8-43.52 19.626667-89.514667 19.626667-137.173333s-6.826667-93.696-19.626667-137.173333H96.469333c-12.8 43.52-19.626667 89.514667-19.626666 137.173333s6.826667 93.696 19.626666 137.173333h409.728z" fill="#231F20" p-id="6104"></path><path d="M477.269333 724.053333H125.354667a488.533333 488.533333 0 0 0 175.957333 197.888 488.533333 488.533333 0 0 0 175.957333-197.930666z" fill="#019B8F" p-id="6105"></path><path d="M301.312 102.058667a488.533333 488.533333 0 0 1 175.957333 197.930666H125.354667a488.533333 488.533333 0 0 1 175.957333-197.930666z" fill="#D8A22A" p-id="6106"></path></svg>