<svg xmlns="http://www.w3.org/2000/svg" viewBox="0 0 1024 1024"><path d="M465.664 679.168c105.301333 0.597333 172.970667 1.066667 202.922667 1.450667 20.48 0.256 36.181333 0.426667 47.274666 0.469333h3.84c45.824 0 84.096 8.533333 114.901334 25.258667 31.189333 16.938667 54.826667 42.368 70.826666 76.245333l1.152 2.517333a24.106667 24.106667 0 0 1-1.621333 3.413334c-46.336 67.84-101.034667 116.565333-164.096 146.346666-63.146667 29.824-134.613333 40.704-214.485333 32.469334-159.232-16.384-283.477333-106.24-372.352-269.994667a5.973333 5.973333 0 0 1 3.584-8.618667c13.653333-3.968 27.733333-6.528 41.941333-7.594666 91.306667-1.365333 170.538667-1.877333 238.165333-1.962667h27.946667z m44.885333 63.829333l-0.64 1.152c-3.754667 6.485333-9.386667 15.36-16.128 25.6l-2.645333 3.925334-1.578667 2.346666c-21.205333 31.445333-51.072 72.234667-70.784 94.464 64.853333 34.304 133.162667 45.44 227.157334 27.52 95.146667-18.090667 145.450667-52.565333 175.829333-114.090666-5.034667-10.581333-14.592-19.285333-31.488-27.733334-12.8-6.4-32.426667-11.050667-58.752-14.250666l-221.013333 1.066666z m-257.578666-5.546666l1.237333 1.536c21.504 26.112 67.712 72.277333 96.896 95.786666 15.146667-14.08 29.098667-29.397333 41.642667-45.824 13.952-18.261333 24.149333-32.64 35.370666-52.821333l-175.146666 1.322667z m471.296-360.874667c38.229333 5.077333 67.626667 18.944 88.448 41.301333 20.736 22.229333 33.024 52.992 36.565333 92.373334 3.626667 39.722667-5.76 71.808-27.733333 96.426666-20.906667 23.381333-53.461333 40.106667-97.877334 49.706667l-2.645333 0.597333-2.816 0.554667H144.725333a8.021333 8.021333 0 0 1-7.893333-6.485333 1545.173333 1545.173333 0 0 1-0.298667-1.578667c-12.373333-62.378667-18.517333-106.666667-18.517333-132.906667 0-38.570667 5.888-81.962667 17.706667-130.261333l1.066666-4.394667a7.082667 7.082667 0 0 1 6.826667-5.333333h580.650667zM197.546667 442.88l-0.853334 2.688c-7.509333 24.064-12.544 44.330667-12.117333 70.954667 0 30.293333 5.418667 54.272 13.653333 81.664h283.050667l0.341333-2.218667 0.469334-3.2c3.541333-24.448 4.010667-47.701333 4.010666-76.544 0-30.805333-1.066667-51.541333-6.4-75.264l-282.154666 1.92z m493.397333-3.029333l-131.797333 1.024 0.512 2.474666c4.48 22.357333 6.741333 43.861333 6.741333 73.216 0 30.421333-2.432 53.76-7.552 79.189334l134.826667-0.170667 1.962666-0.213333c28.16-2.901333 49.194667-7.210667 62.421334-23.04 11.52-13.866667 17.152-32.469333 17.152-55.765334 0-24.746667-6.272-42.624-19.456-54.826666-13.653333-12.714667-34.474667-19.2-61.994667-21.674667l-2.816-0.213333z m49.877333-342.784c63.104 29.824 117.845333 78.592 164.181334 146.346666l1.536 2.304a23.466667 23.466667 0 0 1-1.066667 3.669334c-16 33.92-39.594667 59.306667-70.784 76.245333-30.805333 16.768-69.12 25.258667-114.986667 25.258667-11.178667 0-28.16 0.213333-50.944 0.469333-45.098667 0.597333-112.597333 1.408-202.965333 1.493333h-14.122667c-70.613333 0-154.453333-0.512-251.733333-1.962666a207.061333 207.061333 0 0 1-42.24-7.594667 5.973333 5.973333 0 0 1-3.626667-8.618667C242.986667 170.922667 367.146667 81.066667 526.378667 64.682667c79.829333-8.277333 151.296 2.56 214.4 32.426666z m-102.101333 28.501333c-85.205333-15.36-143.957333-4.010667-213.717333 27.221333 11.648 13.312 26.410667 33.621333 40.874666 55.04l1.578667 2.389334 2.56 3.754666 3.498667 5.376 2.346666 3.584 1.237334 1.877334c18.688 28.757333 35.157333 56.746667 41.728 70.613333h213.674666l2.474667-0.298667 2.56-0.341333c21.290667-2.986667 38.144-10.794667 55.978667-19.754667 17.408-8.576 30.122667-18.304 40.106666-29.866666-49.493333-63.018667-108.586667-104.106667-194.901333-119.594667zM367.744 186.453333c-12.458667 10.069333-34.304 29.44-56.192 50.048l-1.706667 1.621334-3.328 3.157333-3.498666 3.328-1.877334 1.792-2.048 2.005333c-17.322667 16.64-33.578667 33.109333-44.501333 45.909334l179.797333-1.536-1.109333-1.877334a3067.264 3067.264 0 0 1-12.672-21.418666l-11.776-20.053334-2.474667-4.053333-2.56-4.266667-1.152-2.005333-1.237333-2.005333c-12.458667-20.693333-24.917333-40.405333-33.706667-50.645334z" fill="#2c2c2c" p-id="5739"></path></svg>