<svg t="1756286353957" class="icon" viewBox="0 0 1024 1024" version="1.1" xmlns="http://www.w3.org/2000/svg" p-id="19008" width="48" height="48"><path d="M853.333333 554.666667a128 128 0 0 1 128 128v170.666666a128 128 0 0 1-128 128H170.666667a128 128 0 0 1-128-128v-170.666666a128 128 0 0 1 128-128h682.666666z m0 85.333333H170.666667a42.666667 42.666667 0 0 0-42.368 37.674667L128 682.666667v170.666666a42.666667 42.666667 0 0 0 37.674667 42.368L170.666667 896h682.666666a42.666667 42.666667 0 0 0 42.368-37.674667L896 853.333333v-170.666666a42.666667 42.666667 0 0 0-42.666667-42.666667zM256 725.333333a42.666667 42.666667 0 1 1 0 85.333334 42.666667 42.666667 0 0 1 0-85.333334zM853.333333 42.666667a128 128 0 0 1 128 128v170.666666a128 128 0 0 1-128 128H170.666667a128 128 0 0 1-128-128V170.666667a128 128 0 0 1 128-128h682.666666z m0 85.333333H170.666667a42.666667 42.666667 0 0 0-42.368 37.674667L128 170.666667v170.666666a42.666667 42.666667 0 0 0 37.674667 42.368L170.666667 384h682.666666a42.666667 42.666667 0 0 0 42.368-37.674667L896 341.333333V170.666667a42.666667 42.666667 0 0 0-42.666667-42.666667zM256 213.333333a42.666667 42.666667 0 1 1 0 85.333334 42.666667 42.666667 0 0 1 0-85.333334z" p-id="19009"></path></svg>